<?xml version="1.0" encoding="UTF-8"?>
<!DOCTYPE svg PUBLIC "-//W3C//DTD SVG 1.1//EN" "http://www.w3.org/Graphics/SVG/1.1/DTD/svg11.dtd">
<!-- Creator: CorelDRAW X7 -->
<svg xmlns="http://www.w3.org/2000/svg" xml:space="preserve" width="19.0666666667px" height="22px" version="1.1" style="shape-rendering:geometricPrecision; text-rendering:geometricPrecision; image-rendering:optimizeQuality; fill-rule:evenodd; clip-rule:evenodd"
viewBox="0 0 15942 18394"
 xmlns:xlink="http://www.w3.org/1999/xlink">
 <defs>
  <style type="text/css">
   <![CDATA[
    .fil1 {fill:#560A4A}
    .fil0 {fill:#904083}
   ]]>
  </style>
 </defs>
 <!--552.75591 637.79528-->
 <g id="Layer_x0020_1">
  <metadata id="CorelCorpID_0Corel-Layer"/>

  <polygon class="fil0" points="7971,511 11735,2682 15499,4854 15499,9197 15499,13540 11735,15712 7971,17883 4207,15712 443,13540 443,9197 443,4854 4207,2682 "/>
  <path class="fil1" d="M7971 0l7971 4599 0 9197 -7971 4598 -7971 -4598 0 -9197 7971 -4599zm0 511l7528 4343 0 8686 -7528 4343 -7528 -4343 0 -8686 7528 -4343z"/>
  <path class="fil1" d="M12274 4871l1598 922 0 1671 595 451 0 -2466 -2284 -1317 91 739zm1598 6059l0 1672 -1598 921 -91 739 2284 -1317 0 -2465 -595 450zm-10205 2593l-1597 -921 0 -1679 -595 -447 0 2469 2284 1317 -92 -739zm-1597 -6052l0 -1678 1597 -922 92 -739 -2284 1317 0 2469 595 -447z"/>
 </g>
</svg>
