<?xml version="1.0" standalone="no"?>
<!DOCTYPE svg PUBLIC "-//W3C//DTD SVG 1.1//EN" "http://www.w3.org/Graphics/SVG/1.1/DTD/svg11.dtd" >
<svg xmlns="http://www.w3.org/2000/svg">
<metadata></metadata>
<defs>
<font id="electrolizeregular" horiz-adv-x="417" >
<font-face units-per-em="2048" ascent="1638" descent="-410" />
<missing-glyph horiz-adv-x="512" />
<glyph horiz-adv-x="2048" />
<glyph horiz-adv-x="2048" />
<glyph unicode="&#xd;" horiz-adv-x="0" />
<glyph unicode=" "  horiz-adv-x="512" />
<glyph unicode="&#x09;" horiz-adv-x="512" />
<glyph unicode="&#xa0;" horiz-adv-x="512" />
<glyph unicode="!" horiz-adv-x="581" d="M205 74q0 -43 16 -60q16 -14 66 -14h10q47 0 61 14q14 12 16.5 20.5t2.5 39.5v47q0 43 -17 59q-16 14 -65 15h-8q-49 0 -64 -15q-14 -12 -16 -20t-2 -39v-47zM205 922v512h172v-512l-23 -533h-127z" />
<glyph unicode="&#x22;" horiz-adv-x="735" d="M131 1354v28q0 23 14 37q16 14 54 15h37q20 0 36 -15q17 -16 17 -43v-22l-47 -471h-70zM446 1354v28q0 23 15 37q16 14 53 15h37q20 0 37 -15q16 -16 16 -43v-22l-47 -471h-70z" />
<glyph unicode="#" horiz-adv-x="1271" d="M113 483l18 123h256l31 205h-260l18 123h260l56 377h122l-55 -377h211l55 377h123l-55 -377h266l-18 -123h-267l-30 -205h270l-18 -123h-271l-57 -401h-123l57 401h-210l-58 -401h-123l58 401h-256zM510 606h211l31 205h-211z" />
<glyph unicode="$" horiz-adv-x="1286" d="M154 225v82h172v-39q0 -31 3 -40t21.5 -23.5t28.5 -17.5t47 -3h147v471h-202q-49 0 -99 41l-55 47q-43 35 -43 82v383q0 61 49 103l49 41q49 41 99 41h202v204h148v-204h194q49 0 99 -41l49 -41q49 -41 49 -103v-82h-172v39q0 31 -3 40t-21.5 23.5t-28.5 17.5t-47 3h-119 v-450h215q49 0 98 -41l49 -41q49 -41 50 -103v-389q0 -61 -50 -102l-49 -41q-49 -41 -98 -41h-215v-225h-148v225h-223q-49 0 -98 41l-49 41q-49 41 -49 102zM346 883q0 -31 3 -40t21.5 -23.5t29 -17.5t46.5 -3h127v450h-127q-37 0 -47 -3t-28.5 -17.5t-21.5 -23.5t-3 -40 v-282zM721 184h139q37 0 47.5 3t28.5 17.5t21.5 24t3.5 39.5v303q0 31 -3.5 40.5t-21.5 23.5t-28.5 17t-47.5 3h-139v-471z" />
<glyph unicode="%" horiz-adv-x="1918" d="M154 803v536q0 23 7 33t17 19l27 22q10 8 20.5 14.5t28.5 6.5h418q18 0 29.5 -6.5t21.5 -14.5l25 -22q10 -8 17 -18.5t7 -33.5v-536q0 -23 -7 -33t-17 -18l-25 -23q-10 -8 -21.5 -14t-29.5 -6h-418q-18 0 -28.5 6t-20.5 14l-27 23q-10 8 -17 18t-7 33zM289 870 q0 -16 1 -21t11 -13t16.5 -9.5t24.5 -1.5h244q18 0 23 1t16 10q10 8 11 13t1 21v402q0 16 -1 21t-11 14q-10 8 -15.5 9t-23.5 1h-244q-18 0 -24.5 -1t-16.5 -9t-11 -13.5t-1 -21.5v-402zM369 -94l999 1560h150l-1008 -1560h-141zM1147 94v537q0 23 7 33t17 18l27 23 q10 8 20.5 14t28.5 6h418q18 0 29.5 -6t21.5 -14l25 -23q10 -8 17 -18.5t7 -32.5v-537q0 -23 -7 -33t-17 -18l-25 -23q-10 -8 -21.5 -14t-29.5 -6h-418q-18 0 -28.5 6t-20.5 14l-27 23q-10 8 -17 18.5t-7 32.5zM1282 162q0 -16 1 -21.5t11 -13.5t16.5 -9t24.5 -1h244 q18 0 23.5 1t15.5 9t11 13t1 22v401q0 16 -1 21.5t-11 13.5t-15.5 9t-23.5 1h-244q-18 0 -24 -1t-17 -9q-10 -8 -11 -13t-1 -22v-401z" />
<glyph unicode="&#x26;" horiz-adv-x="1413" d="M174 184v439q0 49 5 61t36 37l84 70q35 29 55 28h82v8q-27 2 -55 31l-59 49q-27 20 -32 30.5t-5 45.5v266q0 61 49 103l49 41q49 41 98 41h463q49 0 98 -41l50 -41q49 -41 49 -103v-82h-172v39q0 31 -3 40t-21.5 23.5t-29 17.5t-49.5 3h-309q-37 0 -47 -3t-28.5 -17.5 t-21.5 -23.5t-3 -40v-192q0 -39 5 -50.5t36 -35.5q39 -33 57 -40t68 -7h718v-144h-147v-553q0 -41 -7 -57t-32 -43l-37 -37q-47 -47 -96 -47h-676q-49 0 -96 47l-37 37q-16 18 -23.5 27.5t-11.5 27t-4 45.5zM346 227q0 -31 3 -40t21.5 -23t28.5 -17.5t47 -3.5h476 q37 0 47 3.5t28.5 17.5t21.5 23.5t3 39.5v510h-514q-39 0 -51.5 -4t-42.5 -31l-31 -26q-37 -33 -37 -78v-371z" />
<glyph unicode="'" horiz-adv-x="415" d="M127 1354v28q0 23 14 37q16 14 54 15h36q20 0 37 -15q17 -16 17 -43v-22l-47 -471h-70z" />
<glyph unicode="(" horiz-adv-x="448" d="M119 -74v1377q0 47 5 59t36 33l45 30q31 20 43 24.5t51 4.5h37v-80q0 -47 -5 -58t-32 -32q-25 -16 -29 -27.5t-4 -58.5v-1167q0 -47 4 -58.5t29 -27.5q27 -20 32 -31.5t5 -58.5v-80h-37q-39 0 -51 4t-43 24l-45 31q-31 20 -36 32.5t-5 59.5z" />
<glyph unicode=")" horiz-adv-x="448" d="M113 -145q0 47 5 58t32 32q25 16 28.5 27.5t3.5 58.5v1167q0 47 -4 58.5t-28 27.5q-27 20 -32 31.5t-5 58.5v80h37q39 0 51 -4t43 -25l45 -30q31 -20 36 -32.5t5 -59.5v-1377q0 -47 -5.5 -59t-35.5 -33l-45 -31q-31 -20 -43.5 -24t-50.5 -4h-37v80z" />
<glyph unicode="*" horiz-adv-x="1095" d="M154 1133l43 114l282 -102v305h123v-309l299 108l41 -116l-293 -107l180 -258l-102 -70l-184 265l-185 -267l-100 70l180 262z" />
<glyph unicode="+" horiz-adv-x="1101" d="M123 602v133h360v361h133v-361h363v-133h-363v-362h-133v362h-360z" />
<glyph unicode="," d="M123 80v35q0 49 16 65q16 14 68 15q55 0 72 -15q16 -16 16 -65v-35q0 -49 -12 -100l-50 -226l-61 41v205q-16 0 -33 16q-12 10 -14 19.5t-2 44.5z" />
<glyph unicode="-" horiz-adv-x="1028" d="M123 602v133h782v-133h-782z" />
<glyph unicode="." d="M123 74v47q0 31 2 39t16 20q14 14 64 15h8q49 0 66 -15q16 -16 16 -59v-47q0 -31 -2 -39t-17 -21q-14 -14 -61 -14h-10q-49 0 -66 14q-16 16 -16 60z" />
<glyph unicode="/" horiz-adv-x="1075" d="M-82 -184l1075 1618h164l-1083 -1618h-156z" />
<glyph unicode="0" horiz-adv-x="1597" d="M197 184v1065q0 61 49 103l49 41q49 41 98 41h811q49 0 99 -41l49 -41q49 -41 49 -103v-1065q0 -61 -49 -102l-49 -41q-49 -41 -99 -41h-811q-49 0 -98 41l-49 41q-49 41 -49 102zM369 227q0 -31 3 -40t21.5 -23t28.5 -17.5t47 -3.5h659q37 0 47.5 3.5t29 17.5t21.5 23 t3 40v979q0 31 -3 40t-21.5 23.5t-29 17.5t-47.5 3h-659q-37 0 -47 -3t-28.5 -17.5t-21.5 -23.5t-3 -40v-979z" />
<glyph unicode="1" horiz-adv-x="784" d="M102 1120l289 314h240v-1434h-160v1266q0 41 6 53l-6 6l-272 -305z" />
<glyph unicode="2" horiz-adv-x="1236" d="M154 0v217q0 37 5 48t34 36l679 621q27 23 33 42t6 60v182q0 31 -3 40t-21.5 23.5t-28.5 17.5t-47 3h-365q-37 0 -47 -3t-28.5 -17.5t-21.5 -23.5t-3 -40v-39h-172v82q0 61 49 103l49 41q49 41 99 41h516q49 0 98 -41l49 -41q49 -41 49 -103v-288q0 -41 -6 -60.5 t-33 -42.5l-677 -612q-29 -27 -35 -41.5t-6 -52.5v-9h757v-143h-929z" />
<glyph unicode="3" horiz-adv-x="1277" d="M154 184v82h172v-39q0 -31 3 -40t21.5 -23t28.5 -17.5t47 -3.5h405q37 0 47.5 3.5t29 17.5t21.5 23.5t3 39.5v310q0 45 -37 77l-31 27q-31 27 -43 31t-51 4h-328v131h299q39 0 51.5 4t43.5 31l30 24q31 25 36 36t5 50v254q0 31 -3 40t-21.5 23.5t-28.5 17.5t-47 3h-338 q-39 0 -49 -3t-28.5 -17.5t-21.5 -23.5t-3 -40v-39h-172v82q0 61 49 103l49 41q49 41 98 41h492q49 0 98 -41l49 -41q49 -41 49 -103v-336q0 -35 -5 -45t-32 -30l-59 -50q-33 -27 -57 -26v-10q24 0 57 -27l80 -66q31 -25 36 -37t5 -61v-377q0 -41 -7 -57t-32 -43l-37 -37 q-47 -47 -96 -47h-582q-49 0 -98 41l-49 41q-49 41 -49 102z" />
<glyph unicode="4" horiz-adv-x="1339" d="M113 328v168l700 938h193l-682 -916q-20 -31 -35 -39v-8h549v410h172v-410h196v-143h-196v-328h-172v328h-725z" />
<glyph unicode="5" horiz-adv-x="1335" d="M154 184v82h172v-39q0 -31 3 -40t21.5 -23t28.5 -17.5t47 -3.5h463q37 0 47 3.5t28.5 17.5t21.5 23.5t3 39.5v488q0 31 -3 40t-21.5 23.5t-28.5 17.5t-47 3h-395q-49 0 -98.5 -41t-49.5 -82h-172v758h963v-144h-791v-448h8q2 23 45 55q62 45 103 45h463q49 0 98 -41 l49 -41q49 -41 49 -102v-574q0 -61 -49 -102l-49 -41q-49 -41 -98 -41h-615q-49 0 -98 41l-49 41q-49 41 -49 102z" />
<glyph unicode="6" horiz-adv-x="1404" d="M174 184v1065q0 61 49 103l49 41q49 41 99 41h643q49 0 98 -41l49 -41q49 -41 49 -103v-82h-172v39q0 31 -3 40t-21.5 23.5t-28.5 17.5t-47 3h-492q-37 0 -47 -3t-28.5 -17.5t-21.5 -23.5t-3 -40v-407h8l11 10q72 72 112 72h557q49 0 99 -41l49 -41q49 -41 49 -103v-512 q0 -61 -49 -102l-49 -41q-49 -41 -99 -41h-663q-49 0 -99 41l-49 41q-49 41 -49 102zM346 227q0 -31 3 -40t21.5 -23t29 -17.5t46.5 -3.5h512q37 0 47.5 3.5t29 17.5t21.5 23t3 40v426q0 31 -3 40t-21.5 23.5t-29 17.5t-47.5 3h-460q-39 0 -52.5 -4t-50.5 -26 q-47 -29 -49 -52v-428z" />
<glyph unicode="7" horiz-adv-x="1234" d="M51 1290v144h1051v-156l-684 -1278h-189l674 1249q18 33 35 41h-887z" />
<glyph unicode="8" horiz-adv-x="1417" d="M174 184v369q0 57 29 80l96 80q33 27 57 26v11q-25 0 -57 26l-68 53q-33 27 -32 70v350q0 61 49 103l49 41q49 41 98 41h627q49 0 98 -41l49 -41q49 -41 50 -103v-350q0 -43 -33 -70l-68 -53q-33 -27 -57 -26v-11q25 0 57 -26l96 -80q29 -23 29 -80v-369q0 -61 -49 -102 q-16 -12 -49 -41q-49 -41 -98 -41h-676q-49 0 -99 41q-33 29 -49 41q-49 41 -49 102zM346 227q0 -31 3 -40t21.5 -23t29 -17.5t46.5 -3.5h525q37 0 47 3.5t28.5 17.5t21.5 23.5t3 39.5v291q0 33 -4 43t-31 31l-45 37q-25 20 -35 23t-41 3h-413q-31 0 -41 -3t-35 -23l-45 -37 q-27 -20 -31 -30.5t-4 -43.5v-291zM371 940q0 -35 4 -45t28 -31l54 -43q20 -16 31.5 -19t48.5 -3h344q37 0 48 3t32 19l53 43q25 20 29 30.5t4 45.5v266q0 31 -3.5 40t-21.5 23.5t-28.5 17.5t-47.5 3h-475q-37 0 -47 -3t-28.5 -17.5t-21.5 -23.5t-3 -40v-266z" />
<glyph unicode="9" horiz-adv-x="1404" d="M174 737v512q0 61 49 103l49 41q49 41 99 41h663q49 0 99 -41l49 -41q49 -41 49 -103v-1065q0 -61 -49 -102l-49 -41q-49 -41 -99 -41h-643q-49 0 -98 41l-49 41q-49 41 -49 102v82h172v-39q0 -31 3 -40t21.5 -23t28.5 -17.5t47 -3.5h491q37 0 47.5 3.5t29 17.5 t21.5 23.5t3 39.5v408h-8l-11 -10q-72 -72 -112 -72h-557q-49 0 -99 41l-49 41q-49 41 -49 102zM346 780q0 -31 3 -40t21.5 -23.5t29 -17.5t46.5 -3h461q39 0 52.5 4.5t50.5 26.5q47 29 49 51v428q0 31 -3 40t-21.5 23.5t-29 17.5t-47.5 3h-512q-37 0 -47 -3t-28.5 -17.5 t-21.5 -23.5t-3 -40v-426z" />
<glyph unicode=":" d="M123 74v47q0 31 2 39t16 20q14 14 64 15h8q49 0 66 -15q16 -16 16 -59v-47q0 -31 -2 -39t-17 -21q-14 -14 -61 -14h-10q-49 0 -66 14q-16 16 -16 60zM123 872v48q0 31 2 39t16 20q14 14 64 14h8q49 0 66 -14q16 -16 16 -59v-48q0 -31 -2 -39t-17 -20q-14 -14 -61 -14h-10 q-49 0 -66 14q-16 16 -16 59z" />
<glyph unicode=";" d="M123 80v35q0 49 15.5 64.5t68.5 15.5q57 0 72.5 -15.5t15.5 -64.5v-35q0 -49 -12 -100l-50 -226l-61 41v205q-14 0 -31.5 12.5t-17.5 67.5zM123 850v90q0 23 14.5 38t71.5 15t71.5 -14t14.5 -37v-82q0 -33 -15.5 -47t-70.5 -14q-59 0 -72.5 14t-13.5 37z" />
<glyph unicode="&#x3c;" horiz-adv-x="1056" d="M113 649v152l831 444v-172l-598 -305q-68 -31 -92 -31v-8q20 0 92 -31l598 -313v-170z" />
<glyph unicode="=" horiz-adv-x="1064" d="M123 502v133h819v-133h-819zM123 821v133h819v-133h-819z" />
<glyph unicode="&#x3e;" horiz-adv-x="1056" d="M113 215v170l598 313q72 31 92 31v8q-25 0 -92 31l-598 305v172l831 -444v-152z" />
<glyph unicode="?" horiz-adv-x="1089" d="M72 1167v82q0 61 49 103l49 41q49 41 98 41h492q49 0 98 -41l49 -41q49 -41 49 -103v-424q0 -47 -45 -84l-53 -45q-49 -41 -98 -41h-133q-37 0 -47.5 -3t-29 -17t-21.5 -23.5t-3 -40.5v-161h-172v204q0 61 49 103l50 41q49 41 98 41h133q37 0 47 3t28.5 17.5t21.5 23.5 t3 40v323q0 31 -3 40t-21.5 23.5t-28.5 17.5t-47 3h-340q-37 0 -47 -3t-28.5 -17.5t-21.5 -23.5t-3 -40v-39h-172zM354 74q0 -43 17 -60q16 -14 65 -14h10q47 0 62 14q14 12 16 20.5t2 39.5v47q0 43 -16 59q-16 14 -66 15h-8q-49 0 -63 -15q-14 -12 -16.5 -20t-2.5 -39v-47z " />
<glyph unicode="@" horiz-adv-x="1437" d="M123 102v861q0 61 49 102l49 41q49 41 98 41h799q49 0 99 -41l49 -41q49 -41 49 -102v-717l-98 -82h-189q-37 0 -63 22q-20 18 -25 37h-8q0 -18 -31 -37q-37 -23 -76 -22h-274q-37 0 -74 29l-35 30q-37 29 -36 76v467q0 43 36 76l35 28q35 31 74 31h285q39 0 57 -14 q16 -16 16 -31h9v45h114v-575q0 -33 19 -47q18 -16 51 -17h37l49 45v584q0 47 -5 59.5t-32 34.5l-25 21q-27 23 -39 26.5t-49 3.5h-639q-37 0 -49 -4t-39 -26l-24 -21q-27 -23 -32 -35t-5 -59v-717q0 -47 5 -59.5t32 -34.5l24 -21q27 -23 39 -26.5t49 -3.5h818v-111h-898 q-49 0 -98 41l-49 41q-49 41 -49 102zM549 354q0 -33 18 -47q18 -16 56 -16h155q39 0 76 22q27 16 31 23.5t4 32.5v342q0 33 -17 47q-18 14 -57 14h-192q-37 0 -55.5 -14t-18.5 -47v-357z" />
<glyph unicode="A" horiz-adv-x="1439" d="M102 0l492 1434h242l501 -1434h-172l-106 297h-682l-103 -297h-172zM420 430h596l-283 821q-14 35 -14 60h-8q0 -25 -15 -60z" />
<glyph unicode="B" horiz-adv-x="1337" d="M205 0v1434h758q49 0 98 -41l49 -41q49 -41 49 -103v-350q0 -43 -33 -70l-69 -53q-33 -26 -58 -26v-11q25 0 58 -26l98 -80q18 -16 23.5 -29.5t5.5 -50.5v-369q0 -61 -49 -102q-16 -12 -50 -41q-49 -41 -98 -41h-782zM377 143h534q37 0 47.5 3.5t29 17.5t21.5 23.5 t3 39.5v291q0 33 -4 43.5t-31 30.5l-45 37q-25 20 -35 23t-41 3h-479v-512zM377 799h444q37 0 48.5 3t31.5 19l53 43q25 20 29 30.5t4 45.5v266q0 31 -3 40t-21.5 23.5t-28.5 17.5t-47 3h-510v-491z" />
<glyph unicode="C" horiz-adv-x="1357" d="M205 184v1065q0 61 49 103l49 41q49 41 98 41h660q49 0 98 -41l49 -41q49 -41 49 -103v-82h-172v39q0 31 -3 40t-21.5 23.5t-28.5 17.5t-47 3h-508q-37 0 -47 -3t-28.5 -17.5t-21.5 -23.5t-3 -40v-979q0 -31 3 -40t21.5 -23t28.5 -17.5t47 -3.5h508q37 0 47 3.5 t28.5 17.5t21.5 23.5t3 39.5v39h172v-82q0 -61 -49 -102l-49 -41q-49 -41 -98 -41h-660q-49 0 -98 41l-49 41q-49 41 -49 102z" />
<glyph unicode="D" horiz-adv-x="1460" d="M205 0v1434h758q53 0 98 -41l196 -164q49 -41 50 -82v-860q0 -41 -50 -82l-196 -164q-45 -41 -98 -41h-758zM377 143h512q53 0 98 41l98 82q50 41 50 82v737q0 41 -50 82l-98 82q-45 41 -98 41h-512v-1147z" />
<glyph unicode="E" horiz-adv-x="1275" d="M205 0v1434h917v-144h-745v-491h631v-144h-631v-512h745v-143h-917z" />
<glyph unicode="F" horiz-adv-x="1173" d="M205 0v1434h835v-144h-663v-491h549v-144h-549v-655h-172z" />
<glyph unicode="G" horiz-adv-x="1406" d="M205 184v1065q0 61 49 103l49 41q49 41 98 41h656q49 0 98 -41l49 -41q49 -41 49 -103v-82h-172v39q0 31 -3 40t-21.5 23.5t-28.5 17.5t-47 3h-504q-37 0 -47 -3t-28.5 -17.5t-21.5 -23.5t-3 -40v-979q0 -31 3 -40t21.5 -23t28.5 -17.5t47 -3.5h504q37 0 47 3.5 t28.5 17.5t21.5 23.5t3 39.5v367h-311v143h483v-553q0 -61 -49 -102l-49 -41q-49 -41 -98 -41h-656q-49 0 -98 41l-49 41q-49 41 -49 102z" />
<glyph unicode="H" horiz-adv-x="1499" d="M205 0v1434h172v-635h745v635h172v-1434h-172v666h-745v-666h-172z" />
<glyph unicode="I" horiz-adv-x="581" d="M205 0v1434h172v-1434h-172z" />
<glyph unicode="J" horiz-adv-x="1042" d="M72 184v144h172v-101q0 -31 3 -40t21.5 -23t28.5 -17.5t47 -3.5h221q37 0 47.5 3.5t28.5 17.5t21.5 23.5t3.5 39.5v1207h172v-1250q0 -61 -50 -102l-49 -41q-49 -41 -98 -41h-373q-49 0 -98 41l-49 41q-49 41 -49 102z" />
<glyph unicode="K" horiz-adv-x="1267" d="M205 0v1434h172v-635h221l309 497q29 49 74 80l39 27q33 23 46 27t50 4h45v-80q0 -47 -6 -59.5t-43 -32.5l-22 -13q-33 -18 -43.5 -28.5t-32.5 -44.5l-246 -398q-31 -51 -51 -51v-8q20 0 51 -49l260 -412q20 -35 31.5 -45t44.5 -29l22 -12q37 -20 43.5 -32.5t6.5 -59.5 v-80h-58q-37 0 -50 4t-46 27l-39 26q-31 23 -41 34t-33 48l-319 516h-213v-655h-172z" />
<glyph unicode="L" horiz-adv-x="1077" d="M205 0v1434h172v-1291h713v-143h-885z" />
<glyph unicode="M" horiz-adv-x="1875" d="M205 0v1434h278l439 -1145q12 -35 12 -58h8q0 23 12 58l441 1145h276v-1434h-172v1210q0 49 14 99l-6 2l-503 -1311h-132q-94 231 -179 448.5t-140 363.5t-96 258t-63.5 173.5t-24.5 67.5l-7 -2q14 -49 15 -99v-1210h-172z" />
<glyph unicode="N" horiz-adv-x="1495" d="M205 0v1434h172l749 -1168l7 2q-14 49 -15 99v1067h172v-1434h-172l-749 1151l-7 -2q14 -49 15 -98v-1051h-172z" />
<glyph unicode="O" horiz-adv-x="1552" d="M205 184v1065q0 61 49 103l49 41q49 41 98 41h750q49 0 98 -41l49 -41q49 -41 50 -103v-1065q0 -61 -50 -102l-49 -41q-49 -41 -98 -41h-750q-49 0 -98 41l-49 41q-49 41 -49 102zM377 227q0 -31 3 -40t21.5 -23t28.5 -17.5t47 -3.5h598q37 0 47.5 3.5t28.5 17.5t21.5 23 t3.5 40v979q0 31 -3.5 40t-21.5 23.5t-28.5 17.5t-47.5 3h-598q-37 0 -47 -3t-28.5 -17.5t-21.5 -23.5t-3 -40v-979z" />
<glyph unicode="P" horiz-adv-x="1312" d="M205 0v1434h758q49 0 98 -41l49 -41q49 -41 49 -103v-491q0 -61 -49 -103l-49 -41q-49 -41 -98 -41h-586v-573h-172zM377 717h510q37 0 47 3t28.5 17.5t21.5 23.5t3 40v405q0 31 -3 40t-21.5 23.5t-28.5 17.5t-47 3h-510v-573z" />
<glyph unicode="Q" horiz-adv-x="1568" d="M205 184v1065q0 61 49 103l49 41q49 41 98 41h750q49 0 98 -41l49 -41q49 -41 50 -103v-1065q0 -61 -50 -102l-49 -41q-49 -41 -98 -41h-227l108 -123q18 -20 76 -20h219q27 -20 32 -31.5t5 -58.5v-54h-322q-70 0 -98 41l-205 246h-338q-49 0 -98 41l-49 41 q-49 41 -49 102zM377 227q0 -31 3 -40t21.5 -23t28.5 -17.5t47 -3.5h598q37 0 47.5 3.5t28.5 17.5t21.5 23t3.5 40v979q0 31 -3.5 40t-21.5 23.5t-28.5 17.5t-47.5 3h-598q-37 0 -47 -3t-28.5 -17.5t-21.5 -23.5t-3 -40v-979z" />
<glyph unicode="R" horiz-adv-x="1378" d="M205 0v1434h758q49 0 98 -41l49 -41q49 -41 49 -103v-479q0 -63 -51 -106l-51 -43q-45 -37 -94 -37h-115l211 -328q23 -35 32 -44t42 -28l22 -12q37 -20 43 -32.5t6 -59.5v-80h-51q-37 0 -50 4t-46 27l-39 26q-45 31 -74 80l-272 436h-295v-573h-172zM377 717h510 q37 0 47 3t28.5 17.5t21.5 23.5t3 40v405q0 31 -3 40t-21.5 23.5t-28.5 17.5t-47 3h-510v-573z" />
<glyph unicode="S" horiz-adv-x="1286" d="M154 184v82h172v-39q0 -31 3 -40t21.5 -23t28.5 -17.5t47 -3.5h434q37 0 47.5 3.5t28.5 17.5t21.5 23.5t3.5 39.5v344q0 31 -3.5 40.5t-21.5 23.5t-28.5 17t-47.5 3h-489q-49 0 -99 41l-55 47q-43 35 -43 82v424q0 61 49 103l49 41q49 41 99 41h544q49 0 99 -41l49 -41 q49 -41 49 -103v-82h-172v39q0 31 -3 40t-21.5 23.5t-28.5 17.5t-47 3h-394q-37 0 -47 -3t-28.5 -17.5t-21.5 -23.5t-3 -40v-323q0 -31 3 -40t21.5 -23.5t29 -17.5t46.5 -3h490q49 0 98 -41l49 -41q49 -41 50 -103v-430q0 -61 -50 -102l-49 -41q-49 -41 -98 -41h-586 q-49 0 -98 41l-49 41q-49 41 -49 102z" />
<glyph unicode="T" horiz-adv-x="1058" d="M-12 1290v144h1081v-144h-455v-1290h-172v1290h-454z" />
<glyph unicode="U" horiz-adv-x="1499" d="M205 184v1250h172v-1207q0 -31 3 -40t21.5 -23t28.5 -17.5t47 -3.5h545q37 0 47 3.5t28.5 17.5t21.5 23.5t3 39.5v1207h172v-1250q0 -61 -49 -102l-49 -41q-49 -41 -98 -41h-697q-49 0 -98 41l-49 41q-49 41 -49 102z" />
<glyph unicode="V" horiz-adv-x="1236" d="M31 1434h182l389 -1254q12 -41 12 -53h9q0 12 12 53l389 1254h182l-475 -1434h-225z" />
<glyph unicode="W" horiz-adv-x="1908" d="M31 1434h182l307 -1262l10 -51h11l8 51l303 1262h227l312 -1262l12 -51h8l8 51l297 1262h182l-385 -1434h-235l-299 1233l-10 51h-8l-11 -51l-293 -1233h-241z" />
<glyph unicode="X" horiz-adv-x="1261" d="M72 0l434 743l-383 691h184l295 -553q25 -49 25 -64h8q0 8 4 19.5t11 24.5t9 20l295 553h185l-383 -691l434 -743h-189l-346 614q-20 33 -20 58h-8q0 -25 -21 -58l-346 -614h-188z" />
<glyph unicode="Y" horiz-adv-x="1118" d="M2 1434h197l329 -627q25 -43 27 -64h8q2 13 27 64l330 627h196l-471 -836v-598h-172v598z" />
<glyph unicode="Z" horiz-adv-x="1150" d="M92 0v152l731 1095q25 27 43 33v10h-770v144h959v-156l-736 -1092q-18 -27 -43 -32v-11h783v-143h-967z" />
<glyph unicode="[" horiz-adv-x="595" d="M115 -225v1679h368v-133h-221v-1413h221v-133h-368z" />
<glyph unicode="\" horiz-adv-x="1075" d="M-82 1434h164l1075 -1618h-156z" />
<glyph unicode="]" horiz-adv-x="602" d="M113 -92h221v1413h-221v133h368v-1679h-368v133z" />
<glyph unicode="^" horiz-adv-x="878" d="M205 1147l160 246h149l160 -246h-154l-53 82q-23 33 -23 61h-8q0 -23 -22 -61l-54 -82h-155z" />
<glyph unicode="_" horiz-adv-x="1081" d="M0 -143h1081v-133h-1081v133z" />
<glyph unicode="`" horiz-adv-x="675" d="M154 1323l88 129l280 -244l-53 -82z" />
<glyph unicode="a" horiz-adv-x="1159" d="M143 184v246q0 61 50 102l49 41q49 41 98 41h367q39 0 49 -3t26 -17q25 -20 25 -41h8v244q0 31 -3 40t-21.5 23t-28.5 17.5t-47 3.5h-332q-37 0 -50.5 -5.5t-49.5 -35.5l-123 102l49 41q37 31 50 36t50 5h482q49 0 98 -41l49 -41q49 -41 49 -102v-613q0 -31 3 -40 t21.5 -23t21.5 -23.5t3 -40.5v-100h-71q-37 0 -50.5 5t-37.5 26q-33 26 -33 51h-8q0 -25 -45 -51q-37 -23 -50.5 -27t-50.5 -4h-350q-49 0 -98 41l-49 41q-49 41 -50 102zM315 227q0 -31 3.5 -40t21.5 -23t28.5 -17.5t47.5 -3.5h250q37 0 50 4.5t50 27t43 32.5t6 41v139 q0 31 -3 40t-21.5 23.5t-28.5 17.5t-47 3h-299q-37 0 -47.5 -3t-28.5 -17.5t-21.5 -23.5t-3.5 -40v-160z" />
<glyph unicode="b" horiz-adv-x="1130" d="M123 0v1516h172v-588h8q0 18 45 57t78 39h385q49 0 98 -41l49 -41q49 -41 50 -102v-656q0 -61 -50 -102l-49 -41q-49 -41 -98 -41h-383q-37 0 -50 4t-50 27q-47 23 -49 45h-9v-76h-147zM295 248q0 -31 6 -41t43 -32.5t50.5 -27t49.5 -4.5h291q37 0 47.5 3.5t28.5 17.5 t21.5 23t3.5 40v570q0 31 -3.5 40t-21.5 23t-28.5 17.5t-47.5 3.5h-289q-39 0 -52 -4.5t-50 -27t-43 -32.5t-6 -41v-528z" />
<glyph unicode="c" horiz-adv-x="1054" d="M123 184v656q0 61 49 102l49 41q49 41 98 41h426q49 0 99 -41l49 -41q49 -41 49 -102v-82h-172v39q0 31 -3 40t-21.5 23t-28.5 17.5t-47 3.5h-275q-37 0 -47 -3.5t-28.5 -17.5t-21.5 -23.5t-3 -39.5v-570q0 -31 3 -40t21.5 -23t28.5 -17.5t47 -3.5h275q37 0 47 3.5 t28.5 17.5t21.5 23.5t3 39.5v39h172v-82q0 -61 -49 -102l-49 -41q-49 -41 -99 -41h-426q-49 0 -98 41l-49 41q-49 41 -49 102z" />
<glyph unicode="d" horiz-adv-x="1179" d="M123 184v656q0 61 49 102l49 41q49 41 98 41h361q49 0 98 -41q49 -49 49 -61h9v594h172v-1289q0 -31 3 -40t21.5 -23t21.5 -23.5t3 -40.5v-100h-72q-37 0 -50 5t-38 26q-33 27 -33 51h-8q0 -25 -45 -51q-37 -23 -50 -27t-50 -4h-392q-49 0 -98 41l-49 41q-49 41 -49 102z M295 227q0 -31 3 -40t21.5 -23t28.5 -17.5t47 -3.5h291q37 0 50.5 4.5t50 27t43 32.5t6.5 41v510q0 41 -49.5 82t-98.5 41h-293q-37 0 -47 -3.5t-28.5 -17.5t-21.5 -23.5t-3 -39.5v-570z" />
<glyph unicode="e" horiz-adv-x="1118" d="M123 184v656q0 61 49 102l49 41q49 41 98 41h478q41 0 98 -41l51 -41q49 -37 49 -102v-420h-700v-193q0 -31 3 -40t21.5 -23t28.5 -17.5t47 -3.5h398q37 0 50 5t50 36l123 -102l-49 -41q-37 -31 -50.5 -36t-50.5 -5h-547q-49 0 -98 41l-49 41q-49 41 -49 102zM295 553 h528v244q0 31 -3 40t-21.5 23t-28.5 17.5t-47 3.5h-328q-37 0 -47 -3.5t-28.5 -17.5t-21.5 -23.5t-3 -39.5v-244z" />
<glyph unicode="f" horiz-adv-x="729" d="M72 971v53h147v258q0 61 49 102l49 41q49 41 99 41h246q27 -20 31.5 -31.5t4.5 -58.5v-53h-219q-39 0 -63 -20q-18 -14 -21.5 -23.5t-3.5 -40.5v-215h230q27 -20 31.5 -31.5t4.5 -58.5v-53h-266v-881h-172v881h-110q-27 20 -32 31.5t-5 58.5z" />
<glyph unicode="g" horiz-adv-x="1179" d="M123 184v656q0 61 49 102l49 41q49 41 98 41h392q37 0 50 -4t50 -27q45 -27 45 -51h8q0 25 33 51q25 20 38 25.5t50 5.5h72v-100q0 -31 -3 -40.5t-21.5 -23.5t-21.5 -23.5t-3 -39.5v-1145q0 -61 -50 -103l-49 -41q-48 -40 -96 -40h-2h-598v53q0 47 5 58.5t32 31.5h485 q37 0 47.5 3t28.5 17.5t21.5 23.5t3.5 40v403h-9q-4 -18 -49 -57q-49 -41 -98 -41h-361q-49 0 -98 41l-49 41q-49 41 -49 102zM295 227q0 -31 3 -40t21.5 -23t28.5 -17.5t47 -3.5h293q49 0 98.5 41t49.5 82v510q0 31 -6.5 41t-43 32.5t-50 27t-50.5 4.5h-291q-37 0 -47 -3.5 t-28.5 -17.5t-21.5 -23.5t-3 -39.5v-570z" />
<glyph unicode="h" horiz-adv-x="1103" d="M123 0v1516h172v-588h8q0 18 45 57t78 39h358q49 0 99 -41l49 -41q49 -41 49 -102v-840h-172v797q0 31 -3 40t-21.5 23t-29 17.5t-46.5 3.5h-263q-39 0 -52 -4.5t-50 -27t-43 -32.5t-6 -41v-776h-172z" />
<glyph unicode="i" horiz-adv-x="434" d="M113 1327v16q0 39 3 49.5t19 24.5q12 12 22.5 14.5t55.5 2.5h8q61 0 80 -17q14 -14 17.5 -24.5t3.5 -49.5v-16q0 -39 -3.5 -49t-19.5 -25q-16 -16 -76 -16h-10q-45 0 -55.5 2t-24.5 14q-14 14 -17 24.5t-3 49.5zM131 0v1024h172v-1024h-172z" />
<glyph unicode="j" horiz-adv-x="419" d="M-10 -356q0 47 5 58t32 32q39 0 47 2t26 18q18 14 21.5 23.5t3.5 40.5v1206h172v-1249q0 -61 -49 -103l-49 -41q-49 -41 -99 -41h-110v54zM104 1327v16q0 39 3.5 49.5t19.5 24.5q12 12 22.5 14.5t55.5 2.5h8q61 0 80 -17q14 -14 17 -24.5t3 -49.5v-16q0 -39 -3 -49 t-19 -25q-16 -16 -76 -16h-10q-45 0 -55.5 2t-24.5 14q-14 14 -17.5 24.5t-3.5 49.5z" />
<glyph unicode="k" horiz-adv-x="1024" d="M123 0v1516h172v-932h172l184 301q23 35 34 47t42 35l39 26q33 23 46 27t50 4h41v-80q0 -47 -6 -58.5t-43 -31.5l-23 -12q-31 -18 -41 -29.5t-34 -46.5l-133 -207q-18 -29 -37 -39v-8q18 -4 47 -47l299 -465h-191l-272 440h-174v-440h-172z" />
<glyph unicode="l" horiz-adv-x="507" d="M133 152v1364h172v-1260q0 -47 4 -58.5t29 -27.5q27 -20 32 -31.5t5 -58.5v-80h-62q-39 0 -51 4t-43 25l-45 30q-31 20 -36 32.5t-5 60.5z" />
<glyph unicode="m" horiz-adv-x="1742" d="M123 924v100h72q37 0 50 -5t38 -26q33 -27 32 -51h9q0 25 45 51q37 23 50 27t50 4h307q49 0 98 -41q44 -39 46 -57h8q2 18 39 45l30 22q37 23 50.5 27t50.5 4h325q49 0 99 -41l49 -41q49 -41 49 -102v-840h-172v797q0 31 -3 40t-21.5 23t-29 17.5t-46.5 3.5h-226 q-37 0 -50 -4.5t-50 -26.5q-47 -29 -49 -53v-797h-172v797q0 31 -3 40t-21.5 23t-29 17.5t-47.5 3.5h-206q-37 0 -50.5 -4.5t-50.5 -27t-43 -32.5t-6 -41v-776h-172v797q0 31 -3 40t-21.5 23t-21.5 23.5t-3 40.5z" />
<glyph unicode="n" horiz-adv-x="1150" d="M123 924v100h72q37 0 50 -5t38 -26q33 -27 32 -51h9q0 25 45 51q37 23 50 27t50 4h362q49 0 99 -41l49 -41q49 -41 49 -102v-840h-172v797q0 31 -3 40t-21.5 23t-28.5 17.5t-47 3.5h-262q-37 0 -50.5 -4.5t-50.5 -27t-43 -32.5t-6 -41v-776h-172v797q0 31 -3 40t-21.5 23 t-21.5 23.5t-3 40.5z" />
<glyph unicode="o" horiz-adv-x="1134" d="M125 184v656q0 61 49 102l49 41q50 41 99 41h491q49 0 98 -41l50 -41q49 -41 49 -102v-656q0 -61 -49 -102l-50 -41q-49 -41 -98 -41h-491q-49 0 -99 41l-49 41q-49 41 -49 102zM297 227q0 -31 3 -40t21.5 -23t28.5 -17.5t47 -3.5h340q37 0 47.5 3.5t28.5 17.5t21.5 23 t3.5 40v570q0 31 -3.5 40t-21.5 23t-28.5 17.5t-47.5 3.5h-340q-37 0 -47 -3.5t-28.5 -17.5t-21.5 -23.5t-3 -39.5v-570z" />
<glyph unicode="p" horiz-adv-x="1179" d="M123 924v100h72q37 0 50 -5t38 -26q33 -27 32 -51h9q0 25 45 51q37 23 50 27t50 4h391q49 0 98 -41l50 -41q49 -41 49 -102v-656q0 -61 -49 -102l-50 -41q-49 -41 -98 -41h-360q-53 0 -99 41q-49 49 -49 61h-8v-634h-172v1329q0 31 -3 40t-21.5 23t-21.5 23.5t-3 40.5z M344 266q0 -41 49.5 -82t98.5 -41h292q37 0 47.5 3.5t29 17.5t21.5 23.5t3 39.5v570q0 31 -3 40t-21.5 23t-29 17.5t-47.5 3.5h-290q-37 0 -50.5 -4.5t-50.5 -27t-43 -32.5t-6 -41v-510z" />
<glyph unicode="q" horiz-adv-x="1179" d="M123 184v656q0 61 49 102l49 41q49 41 98 41h392q37 0 50 -4t50 -27q45 -27 45 -51h8q0 25 33 51q25 20 38 25.5t50 5.5h72v-100q0 -31 -3 -40.5t-21.5 -23.5t-21.5 -23.5t-3 -39.5v-1329h-172v634h-9q0 -12 -49 -61q-45 -41 -98 -41h-361q-49 0 -98 41l-49 41 q-49 41 -49 102zM295 227q0 -31 3 -40t21.5 -23t28.5 -17.5t47 -3.5h293q49 0 98.5 41t49.5 82v510q0 31 -6.5 41t-43 32.5t-50 27t-50.5 4.5h-291q-37 0 -47 -3.5t-28.5 -17.5t-21.5 -23.5t-3 -39.5v-570z" />
<glyph unicode="r" horiz-adv-x="856" d="M123 924v100h72q37 0 50 -5t38 -26q33 -27 32 -51h9q0 25 45 51q37 23 50 27t50 4h188q49 0 99 -41l49 -41l-123 -102l-25 20q-18 14 -28.5 17.5t-46.5 3.5h-88q-37 0 -50.5 -4.5t-50.5 -27t-43 -32.5t-6 -41v-776h-172v797q0 31 -3 40t-21.5 23t-21.5 23.5t-3 40.5z" />
<glyph unicode="s" horiz-adv-x="1093" d="M123 184v82h172v-39q0 -31 3 -40t21.5 -23t28.5 -17.5t47 -3.5h303q37 0 47.5 3.5t29 17.5t21.5 23.5t3 39.5v166q-2 16 -25 37q-18 14 -28.5 17.5t-47.5 3.5h-358q-49 0 -98 41l-49 40q-49 41 -50 103v205q0 61 50 102l49 41q49 41 98 41h434q49 0 98 -41l50 -41 q49 -41 49 -102v-82h-172v39q0 31 -3 40t-21.5 23t-29 17.5t-47.5 3.5h-282q-37 0 -47.5 -3.5t-28.5 -17.5t-21.5 -23.5t-3.5 -39.5v-119q0 -31 3.5 -40t21.5 -23.5t28.5 -17.5t47.5 -3h358q49 0 98 -41l50 -41q49 -41 49 -102v-226q0 -61 -49 -102l-50 -41q-49 -41 -98 -41 h-455q-49 0 -98 41l-49 41q-49 41 -49 102z" />
<glyph unicode="t" horiz-adv-x="774" d="M51 971v53h135v287h172v-287h263q27 -20 31.5 -31.5t4.5 -58.5v-53h-299v-654q0 -31 3.5 -40t21.5 -23t28.5 -17.5t47.5 -3.5h186q27 -20 32 -31.5t5 -58.5v-53h-299q-49 0 -98 41l-49 41q-49 41 -50 102v697h-98q-27 20 -32 31.5t-5 58.5z" />
<glyph unicode="u" horiz-adv-x="1110" d="M123 184v840h172v-797q0 -31 3 -40t21.5 -23t28.5 -17.5t47 -3.5h221q37 0 50.5 4.5t50.5 27t43 32.5t6 41v776h172v-797q0 -31 3 -40t21.5 -23t21.5 -23.5t3 -40.5v-100h-72q-37 0 -50 5t-38 26q-33 27 -32 51h-9q0 -25 -45 -51q-37 -23 -50 -27t-50 -4h-322 q-49 0 -98 41l-49 41q-49 41 -49 102z" />
<glyph unicode="v" horiz-adv-x="970" d="M31 1024h170l270 -836q10 -31 10 -49h8q1 18 11 49l270 836h170l-356 -1024h-197z" />
<glyph unicode="w" horiz-adv-x="1523" d="M31 1024h166l221 -850q10 -31 10 -49h8q0 18 10 49l211 850h209l211 -850q10 -41 10 -49h9q0 18 10 49l221 850h166l-291 -1024h-223l-203 836q-10 41 -10 49h-8q0 -8 -10 -49l-203 -836h-223z" />
<glyph unicode="x" horiz-adv-x="1011" d="M72 0l346 530l-322 494h178l201 -305q27 -39 27 -64h8q0 25 27 64l200 305h178l-321 -494l346 -530h-178l-225 344q-27 41 -27 62h-8q0 -20 -27 -62l-225 -344h-178z" />
<glyph unicode="y" horiz-adv-x="1101" d="M123 184v840h172v-797q0 -31 3 -40t21.5 -23t28.5 -17.5t47 -3.5h262q37 0 50.5 4.5t50.5 27t43 32.5t6 41v776h172v-1372q0 -61 -49 -103l-49 -41q-50 -40 -99 -40h-589v53q0 47 5 58t31 32h502q37 0 47 3t28.5 17.5t21.5 23.5t3 40v403h-8q-4 -18 -49 -57 q-49 -41 -98 -41h-357q-49 0 -98 41l-49 41q-49 41 -49 102z" />
<glyph unicode="z" horiz-adv-x="970" d="M92 0v152l533 686q25 27 43 32v11h-531q-27 20 -32 31.5t-5 58.5v53h758v-156l-536 -682q-25 -27 -43 -32v-11h563q27 -20 32 -31.5t5 -58.5v-53h-787z" />
<glyph unicode="{" horiz-adv-x="571" d="M123 446v164l72 62q36 33 36 78v553q0 47 5.5 59t35.5 33l45 30q31 20 43.5 24.5t51.5 4.5h37v-80q0 -47 -5.5 -58t-31.5 -32q-25 -16 -29 -27.5t-4 -58.5v-504q0 -47 -5 -60t-36 -38l-53 -43q-25 -20 -45 -21v-8q20 0 45 -20l53 -43q31 -25 36 -38t5 -61v-331 q0 -47 4 -58.5t29 -27.5q27 -20 32 -31.5t5 -58.5v-80h-37q-39 0 -51.5 4t-43.5 24l-45 31q-31 20 -36 32.5t-5 59.5v381q0 45 -36 78z" />
<glyph unicode="|" horiz-adv-x="552" d="M205 -369v1885h143v-1885h-143z" />
<glyph unicode="}" horiz-adv-x="571" d="M123 -145q0 47 5 58t32 32q25 16 29 27.5t4 58.5v331q0 47 5 60.5t35 38.5l54 43q25 20 45 20v8q-20 0 -45 21l-54 43q-31 25 -35.5 38t-4.5 60v504q0 47 -4.5 58.5t-28.5 27.5q-27 20 -32 31.5t-5 58.5v80h37q39 0 51 -4t43 -25l45 -30q31 -20 36 -32.5t5 -59.5v-553 q0 -45 37 -78l72 -62v-164l-72 -61q-37 -33 -37 -78v-381q0 -47 -5 -59t-36 -33l-45 -31q-31 -20 -43 -24t-51 -4h-37v80z" />
<glyph unicode="~" horiz-adv-x="931" d="M154 1253l161 80q20 12 50 13q8 0 39.5 -11.5t66.5 -24t64.5 -23.5t33.5 -11q10 0 27 6l127 66l55 -105l-162 -82q-23 -12 -49 -12q-12 0 -42.5 11t-64.5 24.5t-61.5 25t-33.5 11.5q-20 0 -60 -21l-96 -51z" />
<glyph unicode="&#xa1;" horiz-adv-x="581" d="M205 -20l22 532h127l23 -532v-512h-172v512zM205 780v47q0 43 16 60q16 14 66 14h10q47 0 61 -14q14 -12 16.5 -20.5t2.5 -39.5v-47q0 -43 -17 -59q-16 -14 -65 -14h-8q-49 0 -64 14q-14 12 -16 20.5t-2 38.5z" />
<glyph unicode="&#xa2;" horiz-adv-x="1105" d="M123 184v656q0 61 49 102l49 41q49 41 98 41h162v205h144v-205h161q49 0 99 -41l49 -41q49 -41 49 -102v-82h-172v39q0 31 -3 40t-21.5 23t-28.5 17.5t-47 3.5h-316q-37 0 -47 -3.5t-28.5 -17.5t-21.5 -23.5t-3 -39.5v-570q0 -31 3 -40t21.5 -23t28.5 -17.5t47 -3.5h316 q37 0 47 3.5t28.5 17.5t21.5 23.5t3 39.5v39h172v-82q0 -61 -49 -102l-49 -41q-49 -41 -99 -41h-161v-207h-144v207h-162q-49 0 -98 41l-49 41q-49 41 -49 102z" />
<glyph unicode="&#xa3;" horiz-adv-x="1204" d="M92 614v134h139v489q0 49 41 98l41 49q41 49 103 50h415q61 0 103 -50l41 -49q41 -49 41 -98v-70h-172v23q0 37 -3 47t-17.5 28.5t-23.5 21.5t-40 3h-273q-31 0 -40 -3t-23 -21.5t-17.5 -28.5t-3.5 -47v-442h400v-134h-400v-313q0 -49 -45 -102q-39 -43 -51 -45v-9h826 v-145h-1024v145q41 0 81.5 49.5t40.5 98.5v321h-139z" />
<glyph unicode="&#xa4;" horiz-adv-x="1052" d="M92 346l105 105v497l-105 107l94 94l111 -107h459l110 107l95 -94l-105 -105v-497l105 -107l-95 -94l-106 106h-463l-111 -106zM311 500q0 -25 13 -35q14 -10 41 -10h323q27 0 41 10q12 10 12 35v401q0 25 -12 35q-14 10 -41 10h-323q-27 0 -41 -10q-13 -10 -13 -35v-401 z" />
<glyph unicode="&#xa5;" horiz-adv-x="1175" d="M31 1434h196l330 -627q25 -43 27 -64h8q2 12 26 64l330 627h197l-404 -715h256v-133h-323v-125h323v-133h-323v-328h-172v328h-324v133h324v125h-324v133h254z" />
<glyph unicode="&#xa6;" horiz-adv-x="552" d="M205 -369v777h143v-777h-143zM205 739v777h143v-777h-143z" />
<glyph unicode="&#xa7;" horiz-adv-x="1318" d="M154 -143h172v-39q0 -31 3 -40t21.5 -23.5t28.5 -17.5t49 -3h461q37 0 47 3t28.5 17.5t21.5 23.5t3 40v151q0 39 -5 50.5t-36 35.5l-30 25q-31 27 -43.5 31t-51.5 4h-200q-37 0 -49.5 4t-41.5 28l-315 263q-37 29 -39 53v221q0 49 5 61.5t36 36.5l84 70q29 23 51 25v8 q-27 2 -51 22l-63 54q-27 20 -32 31.5t-5 43.5v234q0 61 49 102l49 41q49 41 98 41h516q49 0 99 -41l49 -41q49 -41 49 -102v-82h-172v39q0 31 -3 40t-21.5 23.5t-28.5 17.5t-49 3h-363q-37 0 -47 -3t-28.5 -17.5t-21.5 -24t-3 -39.5v-152q0 -39 5 -50t36 -36l30 -24 q31 -27 43.5 -31t51.5 -4h200q37 0 49.5 -4t40.5 -29l316 -262q29 -25 34 -36t5 -50v-189q0 -49 -5 -61t-36 -37l-84 -69q-29 -23 -51 -25v-8q26 -3 51 -23l63 -53q25 -20 31 -31.5t6 -44.5v-233q0 -61 -49 -103l-49 -41q-49 -41 -98 -41h-615q-49 0 -98 41l-49 41 q-49 41 -49 103v82zM350 528q0 -41 5 -52t34 -36l195 -164q27 -23 39 -26.5t49 -3.5h180q39 0 51 4t43 31l31 26q37 33 37 78v131q0 41 -5 52.5t-34 35.5l-195 164q-27 23 -39 27t-49 4h-180q-39 0 -51 -4t-43 -31l-31 -27q-37 -33 -37 -78v-131z" />
<glyph unicode="&#xa8;" horiz-adv-x="794" d="M135 1286v17q0 45 21 67q12 14 22 16.5t51 2.5q47 0 59.5 -2.5t26.5 -16.5q12 -10 14.5 -19t2.5 -48v-17q0 -39 -2 -48t-17 -19q-18 -18 -73 -19h-11q-53 0 -73.5 18.5t-20.5 67.5zM463 1286v17q0 45 20 67q12 14 22.5 16.5t51.5 2.5q47 0 59.5 -2.5t26.5 -16.5 q12 -10 14 -19t2 -48v-17q0 -39 -2 -48t-16 -19q-18 -18 -74 -19h-10q-53 0 -73.5 18.5t-20.5 67.5z" />
<glyph unicode="&#xa9;" horiz-adv-x="1499" d="M154 266v860q0 61 49 103l49 41q49 41 98 41h799q49 0 98 -41l49 -41q49 -41 50 -103v-860q0 -61 -50 -102l-49 -41q-49 -41 -98 -41h-799q-49 0 -98 41l-49 41q-49 41 -49 102zM281 338q0 -47 5 -59.5t31 -34.5l25 -21q27 -23 39 -26.5t49 -3.5h639q37 0 49 4t39 26 l25 21q27 23 32 35t5 59v717q0 47 -5.5 59t-31.5 35l-25 20q-27 23 -39 27t-49 4h-639q-37 0 -49 -4t-39 -27l-25 -20q-27 -23 -31.5 -35t-4.5 -59v-717zM426 383q0 -39 31 -61l28 -23q29 -25 56 -25h434q27 0 59 25l31 23q29 25 29 61v76h-131v-21q0 -25 -17 -39 q-14 -12 -47 -12h-283q-31 0 -47 12q-12 12 -12 37v520q0 25 12 37q16 12 47 13h283q33 0 47 -13q16 -14 17 -39v-20h131v76q0 37 -29 61l-31 23q-33 25 -59 24h-434q-27 0 -56 -24l-28 -23q-31 -23 -31 -61v-627z" />
<glyph unicode="&#xaa;" horiz-adv-x="890" d="M125 840v174q0 41 33 73l37 29q33 29 69 29h264q37 0 56 -15q16 -14 16 -28h6v155q0 31 -16.5 45.5t-54.5 14.5h-226q-27 0 -37 -4t-34 -25l-86 88l32 29q25 20 35 24.5t37 4.5h352q35 0 72 -29l35 -29q35 -31 35 -73v-431q0 -31 16 -45t16 -45v-73h-47q-27 0 -36 4 t-27 22q-23 23 -27 35h-10q-4 -16 -25 -35q-33 -27 -73 -26h-273q-39 0 -69 30l-37 29q-33 29 -33 72zM258 885q0 -31 16.5 -45.5t53.5 -14.5h174q37 0 69 23q25 14 30 21.5t5 29.5v82q0 33 -16 47q-18 14 -58 14h-204q-37 0 -53.5 -14t-16.5 -47v-96z" />
<glyph unicode="&#xab;" horiz-adv-x="1069" d="M133 559l340 549l109 -82l-295 -467l295 -467l-109 -82zM487 559l340 549l109 -82l-295 -467l295 -467l-109 -82z" />
<glyph unicode="&#xac;" horiz-adv-x="1024" d="M123 602v133h778v-352h-133v219h-645z" />
<glyph unicode="&#xad;" horiz-adv-x="739" d="M123 602v133h491v-133h-491z" />
<glyph unicode="&#xae;" horiz-adv-x="1499" d="M154 266v860q0 61 49 103l49 41q49 41 98 41h799q49 0 98 -41l49 -41q49 -41 50 -103v-860q0 -61 -50 -102l-49 -41q-49 -41 -98 -41h-799q-49 0 -98 41l-49 41q-49 41 -49 102zM281 338q0 -47 5 -59.5t31 -34.5l25 -21q27 -23 39 -26.5t49 -3.5h639q37 0 49 4t39 26 l25 21q27 23 32 35t5 59v717q0 47 -5.5 59t-31.5 35l-25 20q-27 23 -39 27t-49 4h-639q-37 0 -49 -4t-39 -27l-25 -20q-27 -23 -31.5 -35t-4.5 -59v-717zM426 274h131v344h182l164 -264q18 -27 43 -47l23 -16q27 -16 57 -17h66v45q0 29 -4.5 36t-24.5 22l-14 4 q-27 18 -45 47l-121 190h78q29 0 55 23l31 23q29 25 28 65v283q0 37 -26 59l-31 23q-32 24 -57 24h-535v-844zM557 725v281h330q29 0 45 -13q16 -10 16 -39v-180q0 -27 -16 -37q-16 -12 -45 -12h-330z" />
<glyph unicode="&#xaf;" horiz-adv-x="1081" d="M0 1300v134h1081v-134h-1081z" />
<glyph unicode="&#xb0;" horiz-adv-x="821" d="M123 954v385q0 31 24 52l27 22q24 21 49 21h377q27 0 51 -21l25 -22q25 -20 24 -52v-385q0 -31 -24 -51l-25 -22q-25 -20 -51 -21h-377q-25 0 -49 21l-27 22q-25 20 -24 51zM258 1022q0 -25 12 -35q14 -10 41 -10h203q27 0 39 10t12 35v250q0 25 -12 35t-39 10h-203 q-27 0 -41 -10q-12 -10 -12 -35v-250z" />
<glyph unicode="&#xb1;" horiz-adv-x="1101" d="M123 225v133h856v-133h-856zM123 848v133h360v360h133v-360h363v-133h-363v-363h-133v363h-360z" />
<glyph unicode="&#xb2;" horiz-adv-x="733" d="M121 1260v71q0 37 26 60l27 20q35 23 53 23h291q27 0 55 -23l25 -20q29 -23 29 -60v-194q0 -29 -25 -52l-315 -247q-16 -16 -17 -29h373v-113h-506v119q0 25 3 32t18 21l317 267q16 16 17 32v121q0 16 -10.5 24.5t-32.5 8.5h-162q-23 0 -33 -8t-10 -25v-28h-123z" />
<glyph unicode="&#xb3;" horiz-adv-x="759" d="M119 799v71h123v-30q0 -14 10 -22.5t33 -8.5h192q16 0 31 8q10 8 10 23v131q0 14 -16 30l-15 13q-18 16 -41 16h-131v107h117q25 0 47 18q27 20 27 43v90q0 16 -10.5 24.5t-30.5 8.5h-160q-23 0 -33 -8t-10 -25v-28h-123v71q0 37 27 60l24 20q27 23 56 23h276 q25 0 56 -23l22 -20q29 -25 29 -60v-162q0 -29 -23 -47l-18 -14q-15 -10 -31 -10v-8q20 0 31 -11l28 -28q16 -16 20.5 -24.5t4.5 -33.5v-194q0 -37 -20 -60l-19 -18q-25 -25 -55 -25h-320q-29 0 -55 23l-27 20q-27 18 -26 60z" />
<glyph unicode="&#xb4;" horiz-adv-x="675" d="M154 1208l280 244l88 -129l-315 -197z" />
<glyph unicode="&#xb5;" horiz-adv-x="1138" d="M123 -532v1556h172v-797q0 -31 3 -40t21.5 -23t28.5 -17.5t47 -3.5h250q37 0 50.5 4.5t50 27t43 32.5t6.5 41v776h172v-797q0 -31 3 -40t21.5 -23t21.5 -23.5t3 -40.5v-100h-72q-37 0 -50 5t-38 26q-33 27 -33 51h-8q0 -25 -45 -51q-37 -23 -50 -27t-50 -4h-277 q-49 0 -98 41h-8v-573h-164z" />
<glyph unicode="&#xb6;" horiz-adv-x="1058" d="M123 885v536q0 31 24 52l27 22q24 21 49 21h361v-1885h-123v1160h-238q-25 0 -49 20l-27 23q-25 20 -24 51zM737 -369v1885h123v-1885h-123z" />
<glyph unicode="&#xb7;" horiz-adv-x="600" d="M147 599v38v78v38t3.5 22t9.5 15.5t16 16.5q8 8 14.5 13t15.5 7t25.5 2h44.5h48h43t25 -2t16.5 -7t17.5 -13q8 -10 13 -16.5t8.5 -15.5t3.5 -22.5v-37.5v-78v-38t-3.5 -22.5t-9.5 -15.5l-16 -16q-16 -16 -29.5 -19.5t-66.5 -3.5h-50h-45t-25 2t-16.5 7.5t-15.5 13.5 q-10 10 -15 16t-8.5 15.5t-3.5 22.5z" />
<glyph unicode="&#xb8;" horiz-adv-x="778" d="M195 -293h100v-18q0 -23 12 -33t39 -10h119q29 0 41 10t12 33v90q0 23 -12 33t-39 10h-43q-12 0 -23 -6l-20 -15h-100v199h100v-121q53 39 74 39h65q25 0 49 -20l25 -21q25 -20 24 -51v-184q0 -31 -24 -52l-25 -20q-25 -20 -49 -21h-227q-25 0 -49 21l-25 20 q-25 20 -24 52v65z" />
<glyph unicode="&#xb9;" horiz-adv-x="552" d="M109 1292l129 142h202v-738h-131v641l-116 -127z" />
<glyph unicode="&#xba;" horiz-adv-x="864" d="M123 803v536q0 31 24 52l27 22q24 21 49 21h418q27 0 51 -21l25 -22q25 -20 24 -52v-536q0 -31 -24 -51l-25 -23q-25 -20 -51 -20h-418q-25 0 -49 20l-27 23q-25 20 -24 51zM258 870q0 -25 12 -34q14 -10 41 -11h244q27 0 39 10t12 35v402q0 25 -12 35t-39 10h-244 q-27 0 -41 -10q-12 -10 -12 -35v-402z" />
<glyph unicode="&#xbb;" horiz-adv-x="1069" d="M133 92l295 467l-295 467l109 82l340 -549l-340 -549zM487 92l295 467l-295 467l109 82l340 -549l-340 -549z" />
<glyph unicode="&#xbc;" horiz-adv-x="1574" d="M154 1292l129 142h202v-738h-131v641l-116 -127zM155 -94l1000 1560h149l-1007 -1560h-142zM817 155v94l336 480h151l-340 -461h226v184h122v-184h99v-113h-99v-153h-122v153h-373z" />
<glyph unicode="&#xbd;" horiz-adv-x="1589" d="M153 -94l1000 1560h149l-1007 -1560h-142zM154 1292l129 142h202v-738h-131v641l-116 -127zM914 566v71q0 37 26 60l27 20q35 23 53 23h291q27 0 55 -23l25 -20q29 -23 29 -60v-194q0 -29 -25 -52l-315 -247q-16 -16 -17 -29h373v-113h-506v119q0 25 3 32t18 21l317 267 q16 16 17 32v121q0 16 -10.5 24.5t-32.5 8.5h-162q-23 0 -33 -8t-10 -25v-28h-123z" />
<glyph unicode="&#xbe;" horiz-adv-x="1675" d="M154 799v71h123v-30q0 -14 10 -22.5t33 -8.5h192q16 0 31 8q10 8 10 23v131q0 14 -16 30l-15 13q-18 16 -41 16h-131v107h117q25 0 47 18q27 20 27 43v90q0 16 -10.5 24.5t-30.5 8.5h-160q-23 0 -33 -8t-10 -25v-28h-123v71q0 37 27 60l24 20q27 23 56 23h276 q25 0 56 -23l22 -20q29 -25 29 -60v-162q0 -29 -23 -47l-18 -14q-15 -10 -31 -10v-8q20 0 31 -11l28 -28q16 -16 20.5 -24.5t4.5 -33.5v-194q0 -37 -20 -60l-19 -18q-25 -25 -55 -25h-320q-29 0 -55 23l-27 20q-27 18 -26 60zM307 -94l1000 1560h149l-1007 -1560h-142z M969 155v94l336 480h151l-340 -461h226v184h122v-184h99v-113h-99v-153h-122v153h-373z" />
<glyph unicode="&#xbf;" horiz-adv-x="1089" d="M133 76q0 47 45 84l53 45q49 41 99 41h133q37 0 47 3t28.5 17.5t21.5 23.5t3 40v162h172v-205q0 -61 -49 -103l-49 -41q-49 -41 -98 -41h-133q-37 0 -47.5 -3t-29 -17t-21.5 -23.5t-3 -40.5v-323q0 -31 3 -40t21.5 -23.5t29 -17.5t47.5 -3h339q37 0 47.5 3t29 17.5 t21.5 23.5t3 40v39h172v-82q0 -61 -49 -103l-49 -41q-49 -41 -99 -40h-491q-49 0 -99 40l-49 41q-49 41 -49 103v424zM563 780v47q0 31 2 39t17 21q14 14 61 14h10q49 0 66 -14q16 -16 16 -60v-47q0 -31 -2 -39t-16 -20q-14 -14 -64 -14h-8q-49 0 -65 14q-17 16 -17 59z" />
<glyph unicode="&#xc0;" horiz-adv-x="1439" d="M102 0l492 1434h242l501 -1434h-172l-106 297h-682l-103 -297h-172zM420 430h596l-283 821q-14 35 -14 60h-8q0 -25 -15 -60zM471 1647l67 135l332 -199l-39 -82z" />
<glyph unicode="&#xc1;" horiz-adv-x="1439" d="M102 0l492 1434h242l501 -1434h-172l-106 297h-682l-103 -297h-172zM420 430h596l-283 821q-14 35 -14 60h-8q0 -25 -15 -60zM553 1583l332 199l67 -135l-360 -146z" />
<glyph unicode="&#xc2;" horiz-adv-x="1439" d="M102 0l492 1434h242l501 -1434h-172l-106 297h-682l-103 -297h-172zM420 430h596l-283 821q-14 35 -14 60h-8q0 -25 -15 -60zM453 1602l211 180h108l211 -180l-53 -70l-207 127h-8l-209 -127z" />
<glyph unicode="&#xc3;" horiz-adv-x="1439" d="M102 0l492 1434h242l501 -1434h-172l-106 297h-682l-103 -297h-172zM407 1642l162 80q8 4 22.5 8.5t26.5 4.5q20 0 49 -11.5t59 -23.5t55.5 -23.5t41.5 -11.5q10 0 27 6l127 66l55 -105l-162 -82q-8 -4 -22.5 -8t-26.5 -4q-25 0 -52.5 11.5t-55 24.5t-52 24.5t-43.5 11.5 q-14 0 -22 -2t-37 -19l-96 -51zM420 430h596l-283 821q-14 35 -14 60h-8q0 -25 -15 -60z" />
<glyph unicode="&#xc4;" horiz-adv-x="1439" d="M102 0l492 1434h242l501 -1434h-172l-106 297h-682l-103 -297h-172zM420 430h596l-283 821q-14 35 -14 60h-8q0 -25 -15 -60zM451 1634v17q0 35 3 43t18 24q12 14 22 16.5t51 2.5q47 0 59.5 -2t26.5 -17q12 -10 14.5 -19t2.5 -48v-17q0 -39 -2 -48t-17 -19 q-14 -14 -25.5 -16.5t-48.5 -2.5h-10q-39 0 -49 3t-24 16q-14 12 -17.5 22t-3.5 45zM791 1634v17q0 35 3 43t17 24q12 14 22.5 16.5t51.5 2.5q47 0 59.5 -2t26.5 -17q12 -10 14.5 -19t2.5 -48v-17q0 -39 -2 -48t-17 -19q-14 -14 -25.5 -16.5t-48.5 -2.5h-10q-39 0 -49 3 t-25 16q-14 12 -17 22t-3 45z" />
<glyph unicode="&#xc5;" horiz-adv-x="1439" d="M102 0l492 1434h242l501 -1434h-172l-106 297h-682l-103 -297h-172zM420 430h596l-283 821q-14 35 -14 60h-8q0 -25 -15 -60zM527 1651v100q0 47 4 59.5t24 33.5q16 16 30 19t71 3h127q57 0 70.5 -3t29.5 -19q20 -20 24.5 -32.5t4.5 -60.5v-100q0 -49 -4.5 -60.5 t-24.5 -31.5q-16 -16 -29.5 -19.5t-70.5 -3.5h-127q-57 0 -70.5 3.5t-30.5 19.5q-20 20 -24 31.5t-4 60.5zM615 1680q0 -33 12 -43q16 -13 43 -13h98q27 0 43 13q12 10 13 43v43q0 33 -13 43q-16 12 -43 12h-98q-27 0 -43 -12q-12 -10 -12 -43v-43z" />
<glyph unicode="&#xc6;" horiz-adv-x="1849" d="M51 0l522 1434h1123v-144h-684v-491h569v-144h-569v-512h684v-143h-856v297h-496l-102 -297h-191zM387 430h453v860h-152z" />
<glyph unicode="&#xc7;" horiz-adv-x="1357" d="M205 184v1065q0 61 49 103l49 41q49 41 98 41h660q49 0 98 -41l49 -41q49 -41 49 -103v-82h-172v39q0 31 -3 40t-21.5 23.5t-28.5 17.5t-47 3h-508q-37 0 -47 -3t-28.5 -17.5t-21.5 -23.5t-3 -40v-979q0 -31 3 -40t21.5 -23t28.5 -17.5t47 -3.5h508q37 0 47 3.5 t28.5 17.5t21.5 23.5t3 39.5v39h172v-82q0 -61 -49 -102l-49 -41q-49 -41 -98 -41h-264v-121q53 39 73 39h66q25 0 49 -20l25 -21q25 -20 24 -51v-184q0 -31 -24 -52l-25 -20q-25 -20 -49 -21h-227q-25 0 -50 21l-24 20q-25 20 -25 52v65h101v-18q0 -23 12 -33t39 -10h119 q29 0 41 10t12 33v90q0 23 -12.5 33t-38.5 10h-43q-12 0 -23 -6l-20 -15h-101v199h-295q-49 0 -98 41l-49 41q-49 41 -49 102z" />
<glyph unicode="&#xc8;" horiz-adv-x="1275" d="M205 0v1434h917v-144h-745v-491h631v-144h-631v-512h745v-143h-917zM430 1647l67 135l332 -199l-39 -82z" />
<glyph unicode="&#xc9;" horiz-adv-x="1275" d="M205 0v1434h917v-144h-745v-491h631v-144h-631v-512h745v-143h-917zM512 1583l332 199l67 -135l-360 -146z" />
<glyph unicode="&#xca;" horiz-adv-x="1275" d="M205 0v1434h917v-144h-745v-491h631v-144h-631v-512h745v-143h-917zM426 1602l211 180h108l211 -180l-53 -70l-207 127h-8l-209 -127z" />
<glyph unicode="&#xcb;" horiz-adv-x="1275" d="M205 0v1434h917v-144h-745v-491h631v-144h-631v-512h745v-143h-917zM410 1634v17q0 35 3 43t18 24q12 14 22 16.5t51 2.5q47 0 59.5 -2t26.5 -17q12 -10 14.5 -19t2.5 -48v-17q0 -39 -2 -48t-17 -19q-14 -14 -25.5 -16.5t-48.5 -2.5h-10q-39 0 -49 3t-24 16 q-14 12 -17.5 22t-3.5 45zM750 1634v17q0 35 3 43t17 24q12 14 22.5 16.5t51.5 2.5q47 0 59.5 -2t26.5 -17q12 -10 14.5 -19t2.5 -48v-17q0 -39 -2 -48t-17 -19q-14 -14 -25.5 -16.5t-48.5 -2.5h-10q-39 0 -49 3t-25 16q-14 12 -17 22t-3 45z" />
<glyph unicode="&#xcc;" horiz-adv-x="581" d="M4 1647l67 135l332 -199l-39 -82zM205 0v1434h172v-1434h-172z" />
<glyph unicode="&#xcd;" horiz-adv-x="581" d="M160 1583l332 199l67 -135l-360 -146zM205 0v1434h172v-1434h-172z" />
<glyph unicode="&#xce;" horiz-adv-x="581" d="M23 1602l211 180h108l211 -180l-53 -70l-207 127h-8l-209 -127zM205 0v1434h172v-1434h-172z" />
<glyph unicode="&#xcf;" horiz-adv-x="581" d="M25 1634v17q0 35 3 43t18 24q12 14 22 16.5t51 2.5q47 0 59.5 -2t26.5 -17q12 -10 14.5 -19t2.5 -48v-17q0 -39 -2 -48t-17 -19q-14 -14 -25.5 -16.5t-48.5 -2.5h-10q-39 0 -49 3t-24 16q-14 12 -17.5 22t-3.5 45zM205 0v1434h172v-1434h-172zM365 1634v17q0 35 3 43 t17 24q12 14 22.5 16.5t51.5 2.5q47 0 59.5 -2t26.5 -17q12 -10 14.5 -19t2.5 -48v-17q0 -39 -2 -48t-17 -19q-14 -14 -25.5 -16.5t-48.5 -2.5h-10q-39 0 -49 3t-25 16q-14 12 -17 22t-3 45z" />
<glyph unicode="&#xd0;" horiz-adv-x="1527" d="M31 655v133h188v646h758q53 0 98 -41l197 -164q49 -41 49 -82v-860q0 -41 -49 -82l-197 -164q-45 -41 -98 -41h-758v655h-188zM391 143h512q53 0 98 41l99 82q49 41 49 82v737q0 41 -49 82l-99 82q-45 41 -98 41h-512v-502h340v-133h-340v-512z" />
<glyph unicode="&#xd1;" horiz-adv-x="1495" d="M205 0v1434h172l749 -1168l7 2q-14 49 -15 99v1067h172v-1434h-172l-749 1151l-7 -2q14 -49 15 -98v-1051h-172zM475 1642l162 80q8 4 22.5 8.5t26.5 4.5q20 0 49 -11.5t59 -23.5t55.5 -23.5t41.5 -11.5q10 0 27 6l127 66l55 -105l-162 -82q-8 -4 -22.5 -8t-26.5 -4 q-25 0 -52.5 11.5t-55 24.5t-52 24.5t-43.5 11.5q-14 0 -22 -2t-37 -19l-96 -51z" />
<glyph unicode="&#xd2;" horiz-adv-x="1613" d="M205 184v1065q0 61 49 103l49 41q49 41 98 41h750q49 0 98 -41l49 -41q49 -41 50 -103v-1065q0 -61 -50 -102l-49 -41q-49 -41 -98 -41h-750q-49 0 -98 41l-49 41q-49 41 -49 102zM377 227q0 -31 3 -40t21.5 -23t28.5 -17.5t47 -3.5h598q37 0 47.5 3.5t28.5 17.5t21.5 23 t3.5 40v979q0 31 -3.5 40t-21.5 23.5t-28.5 17.5t-47.5 3h-598q-37 0 -47 -3t-28.5 -17.5t-21.5 -23.5t-3 -40v-979zM559 1647l67 135l332 -199l-39 -82z" />
<glyph unicode="&#xd3;" horiz-adv-x="1613" d="M205 184v1065q0 61 49 103l49 41q49 41 98 41h750q49 0 98 -41l49 -41q49 -41 50 -103v-1065q0 -61 -50 -102l-49 -41q-49 -41 -98 -41h-750q-49 0 -98 41l-49 41q-49 41 -49 102zM377 227q0 -31 3 -40t21.5 -23t28.5 -17.5t47 -3.5h598q37 0 47.5 3.5t28.5 17.5t21.5 23 t3.5 40v979q0 31 -3.5 40t-21.5 23.5t-28.5 17.5t-47.5 3h-598q-37 0 -47 -3t-28.5 -17.5t-21.5 -23.5t-3 -40v-979zM662 1583l332 199l67 -135l-360 -146z" />
<glyph unicode="&#xd4;" horiz-adv-x="1613" d="M205 184v1065q0 61 49 103l49 41q49 41 98 41h750q49 0 98 -41l49 -41q49 -41 50 -103v-1065q0 -61 -50 -102l-49 -41q-49 -41 -98 -41h-750q-49 0 -98 41l-49 41q-49 41 -49 102zM377 227q0 -31 3 -40t21.5 -23t28.5 -17.5t47 -3.5h598q37 0 47.5 3.5t28.5 17.5t21.5 23 t3.5 40v979q0 31 -3.5 40t-21.5 23.5t-28.5 17.5t-47.5 3h-598q-37 0 -47 -3t-28.5 -17.5t-21.5 -23.5t-3 -40v-979zM539 1602l211 180h108l211 -180l-53 -70l-207 127h-8l-209 -127z" />
<glyph unicode="&#xd5;" horiz-adv-x="1613" d="M205 184v1065q0 61 49 103l49 41q49 41 98 41h750q49 0 98 -41l49 -41q49 -41 50 -103v-1065q0 -61 -50 -102l-49 -41q-49 -41 -98 -41h-750q-49 0 -98 41l-49 41q-49 41 -49 102zM377 227q0 -31 3 -40t21.5 -23t28.5 -17.5t47 -3.5h598q37 0 47.5 3.5t28.5 17.5t21.5 23 t3.5 40v979q0 31 -3.5 40t-21.5 23.5t-28.5 17.5t-47.5 3h-598q-37 0 -47 -3t-28.5 -17.5t-21.5 -23.5t-3 -40v-979zM493 1642l162 80q8 4 22.5 8.5t26.5 4.5q20 0 49 -11.5t59 -23.5t55.5 -23.5t41.5 -11.5q10 0 27 6l127 66l55 -105l-162 -82q-8 -4 -22.5 -8t-26.5 -4 q-25 0 -52.5 11.5t-55 24.5t-52 24.5t-43.5 11.5q-14 0 -22 -2t-37 -19l-96 -51z" />
<glyph unicode="&#xd6;" horiz-adv-x="1613" d="M205 184v1065q0 61 49 103l49 41q49 41 98 41h750q49 0 98 -41l49 -41q49 -41 50 -103v-1065q0 -61 -50 -102l-49 -41q-49 -41 -98 -41h-750q-49 0 -98 41l-49 41q-49 41 -49 102zM377 227q0 -31 3 -40t21.5 -23t28.5 -17.5t47 -3.5h598q37 0 47.5 3.5t28.5 17.5t21.5 23 t3.5 40v979q0 31 -3.5 40t-21.5 23.5t-28.5 17.5t-47.5 3h-598q-37 0 -47 -3t-28.5 -17.5t-21.5 -23.5t-3 -40v-979zM539 1634v17q0 35 3 43t18 24q12 14 22 16.5t51 2.5q47 0 59.5 -2t26.5 -17q12 -10 14.5 -19t2.5 -48v-17q0 -39 -2 -48t-17 -19q-14 -14 -25.5 -16.5 t-48.5 -2.5h-10q-39 0 -49 3t-24 16q-14 12 -17.5 22t-3.5 45zM879 1634v17q0 35 3 43t17 24q12 14 22.5 16.5t51.5 2.5q47 0 59.5 -2t26.5 -17q12 -10 14.5 -19t2.5 -48v-17q0 -39 -2 -48t-17 -19q-14 -14 -25.5 -16.5t-48.5 -2.5h-10q-39 0 -49 3t-25 16q-14 12 -17 22 t-3 45z" />
<glyph unicode="&#xd7;" horiz-adv-x="1101" d="M201 922l94 94l256 -256l256 256l94 -94l-256 -256l254 -254l-94 -95l-254 254l-254 -254l-94 95l254 254z" />
<glyph unicode="&#xd8;" horiz-adv-x="1564" d="M182 -102l107 153l-35 31q-49 41 -49 102v1065q0 61 49 103l49 41q49 41 98 41h750q18 0 27 -2l73 104h131l-112 -162l28 -22q49 -41 50 -103v-1065q0 -61 -50 -102l-49 -41q-49 -41 -98 -41h-750q-16 0 -24 2l-72 -104h-123zM377 227q0 -35 4 -43l700 1106h-604 q-37 0 -47 -3t-28.5 -17.5t-21.5 -23.5t-3 -40v-979zM475 143h600q37 0 47.5 3.5t28.5 17.5t21.5 23t3.5 40v979q0 23 -2 31z" />
<glyph unicode="&#xd9;" horiz-adv-x="1499" d="M205 184v1250h172v-1207q0 -31 3 -40t21.5 -23t28.5 -17.5t47 -3.5h545q37 0 47 3.5t28.5 17.5t21.5 23.5t3 39.5v1207h172v-1250q0 -61 -49 -102l-49 -41q-49 -41 -98 -41h-697q-49 0 -98 41l-49 41q-49 41 -49 102zM502 1647l67 135l332 -199l-39 -82z" />
<glyph unicode="&#xda;" horiz-adv-x="1499" d="M205 184v1250h172v-1207q0 -31 3 -40t21.5 -23t28.5 -17.5t47 -3.5h545q37 0 47 3.5t28.5 17.5t21.5 23.5t3 39.5v1207h172v-1250q0 -61 -49 -102l-49 -41q-49 -41 -98 -41h-697q-49 0 -98 41l-49 41q-49 41 -49 102zM604 1583l332 199l67 -135l-360 -146z" />
<glyph unicode="&#xdb;" horiz-adv-x="1499" d="M205 184v1250h172v-1207q0 -31 3 -40t21.5 -23t28.5 -17.5t47 -3.5h545q37 0 47 3.5t28.5 17.5t21.5 23.5t3 39.5v1207h172v-1250q0 -61 -49 -102l-49 -41q-49 -41 -98 -41h-697q-49 0 -98 41l-49 41q-49 41 -49 102zM481 1602l211 180h108l211 -180l-53 -70l-207 127h-8 l-209 -127z" />
<glyph unicode="&#xdc;" horiz-adv-x="1499" d="M205 184v1250h172v-1207q0 -31 3 -40t21.5 -23t28.5 -17.5t47 -3.5h545q37 0 47 3.5t28.5 17.5t21.5 23.5t3 39.5v1207h172v-1250q0 -61 -49 -102l-49 -41q-49 -41 -98 -41h-697q-49 0 -98 41l-49 41q-49 41 -49 102zM498 1634v17q0 35 3 43t18 24q12 14 22 16.5t51 2.5 q47 0 59.5 -2t26.5 -17q12 -10 14.5 -19t2.5 -48v-17q0 -39 -2 -48t-17 -19q-14 -14 -25.5 -16.5t-48.5 -2.5h-10q-39 0 -49 3t-24 16q-14 12 -17.5 22t-3.5 45zM838 1634v17q0 35 3 43t17 24q12 14 22.5 16.5t51.5 2.5q47 0 59.5 -2t26.5 -17q12 -10 14.5 -19t2.5 -48v-17 q0 -39 -2 -48t-17 -19q-14 -14 -25.5 -16.5t-48.5 -2.5h-10q-39 0 -49 3t-25 16q-14 12 -17 22t-3 45z" />
<glyph unicode="&#xdd;" horiz-adv-x="1118" d="M2 1434h197l329 -627q25 -43 27 -64h8q2 13 27 64l330 627h196l-471 -836v-598h-172v598zM414 1565l332 199l67 -135l-360 -146z" />
<glyph unicode="&#xde;" horiz-adv-x="1312" d="M205 0v1434h172v-226h586q49 0 98 -41l49 -41q49 -41 49 -102v-492q0 -61 -49 -102l-49 -41q-49 -41 -98 -41h-586v-348h-172zM377 492h510q37 0 47 3t28.5 17t21.5 23.5t3 39.5v406q0 31 -3 40t-21.5 23.5t-28.5 17.5t-47 3h-510v-573z" />
<glyph unicode="&#xdf;" horiz-adv-x="1142" d="M123 -532v1781q0 61 49 103l49 41q49 41 98 41h480q49 0 98 -41l49 -41q49 -41 49 -103v-348q0 -61 -49 -102l-22 -19q-33 -27 -58 -26v-11q25 1 58 -26l47 -41q49 -41 49 -103v-389q0 -61 -41 -102l-41 -41q-37 -41 -90 -41h-442v143h342q37 0 47 3.5t28.5 17.5 t21.5 23.5t3 39.5v324q0 49 -45 86q-39 35 -90 35h-307v131h280q47 0 90 33q31 25 39 39t8 49v282q0 31 -3 40t-21.5 23.5t-28.5 17.5t-47 3h-328q-37 0 -47 -3t-28.5 -17.5t-21.5 -23.5t-3 -40v-1738h-172z" />
<glyph unicode="&#xe0;" horiz-adv-x="1159" d="M143 184v246q0 61 50 102l49 41q49 41 98 41h367q39 0 49 -3t26 -17q25 -20 25 -41h8v244q0 31 -3 40t-21.5 23t-28.5 17.5t-47 3.5h-332q-37 0 -50.5 -5.5t-49.5 -35.5l-123 102l49 41q37 31 50 36t50 5h482q49 0 98 -41l49 -41q49 -41 49 -102v-613q0 -31 3 -40 t21.5 -23t21.5 -23.5t3 -40.5v-100h-71q-37 0 -50.5 5t-37.5 26q-33 26 -33 51h-8q0 -25 -45 -51q-37 -23 -50.5 -27t-50.5 -4h-350q-49 0 -98 41l-49 41q-49 41 -50 102zM315 227q0 -31 3.5 -40t21.5 -23t28.5 -17.5t47.5 -3.5h250q37 0 50 4.5t50 27t43 32.5t6 41v139 q0 31 -3 40t-21.5 23.5t-28.5 17.5t-47 3h-299q-37 0 -47.5 -3t-28.5 -17.5t-21.5 -23.5t-3.5 -40v-160zM334 1323l88 129l280 -244l-53 -82z" />
<glyph unicode="&#xe1;" horiz-adv-x="1159" d="M143 184v246q0 61 50 102l49 41q49 41 98 41h367q39 0 49 -3t26 -17q25 -20 25 -41h8v244q0 31 -3 40t-21.5 23t-28.5 17.5t-47 3.5h-332q-37 0 -50.5 -5.5t-49.5 -35.5l-123 102l49 41q37 31 50 36t50 5h482q49 0 98 -41l49 -41q49 -41 49 -102v-613q0 -31 3 -40 t21.5 -23t21.5 -23.5t3 -40.5v-100h-71q-37 0 -50.5 5t-37.5 26q-33 26 -33 51h-8q0 -25 -45 -51q-37 -23 -50.5 -27t-50.5 -4h-350q-49 0 -98 41l-49 41q-49 41 -50 102zM315 227q0 -31 3.5 -40t21.5 -23t28.5 -17.5t47.5 -3.5h250q37 0 50 4.5t50 27t43 32.5t6 41v139 q0 31 -3 40t-21.5 23.5t-28.5 17.5t-47 3h-299q-37 0 -47.5 -3t-28.5 -17.5t-21.5 -23.5t-3.5 -40v-160zM437 1208l280 244l88 -129l-315 -197z" />
<glyph unicode="&#xe2;" horiz-adv-x="1159" d="M143 184v246q0 61 50 102l49 41q49 41 98 41h367q39 0 49 -3t26 -17q25 -20 25 -41h8v244q0 31 -3 40t-21.5 23t-28.5 17.5t-47 3.5h-332q-37 0 -50.5 -5.5t-49.5 -35.5l-123 102l49 41q37 31 50 36t50 5h482q49 0 98 -41l49 -41q49 -41 49 -102v-613q0 -31 3 -40 t21.5 -23t21.5 -23.5t3 -40.5v-100h-71q-37 0 -50.5 5t-37.5 26q-33 26 -33 51h-8q0 -25 -45 -51q-37 -23 -50.5 -27t-50.5 -4h-350q-49 0 -98 41l-49 41q-49 41 -50 102zM315 227q0 -31 3.5 -40t21.5 -23t28.5 -17.5t47.5 -3.5h250q37 0 50 4.5t50 27t43 32.5t6 41v139 q0 31 -3 40t-21.5 23.5t-28.5 17.5t-47 3h-299q-37 0 -47.5 -3t-28.5 -17.5t-21.5 -23.5t-3.5 -40v-160zM324 1200l198 234h109l203 -234l-123 -39l-119 144q-10 12 -10 24h-9q0 -12 -10 -24l-119 -144z" />
<glyph unicode="&#xe3;" horiz-adv-x="1159" d="M143 184v246q0 61 50 102l49 41q49 41 98 41h367q39 0 49 -3t26 -17q25 -20 25 -41h8v244q0 31 -3 40t-21.5 23t-28.5 17.5t-47 3.5h-332q-37 0 -50.5 -5.5t-49.5 -35.5l-123 102l49 41q37 31 50 36t50 5h482q49 0 98 -41l49 -41q49 -41 49 -102v-613q0 -31 3 -40 t21.5 -23t21.5 -23.5t3 -40.5v-100h-71q-37 0 -50.5 5t-37.5 26q-33 26 -33 51h-8q0 -25 -45 -51q-37 -23 -50.5 -27t-50.5 -4h-350q-49 0 -98 41l-49 41q-49 41 -50 102zM267 1253l161 80q20 12 49 13q14 0 47 -11.5t64 -24t56.5 -23.5t37.5 -11q10 0 27 6l127 66l55 -105 l-162 -82q-23 -12 -49 -12q-25 0 -51.5 11t-55 24.5t-54 25t-42.5 11.5q-20 0 -59 -21l-96 -51zM315 227q0 -31 3.5 -40t21.5 -23t28.5 -17.5t47.5 -3.5h250q37 0 50 4.5t50 27t43 32.5t6 41v139q0 31 -3 40t-21.5 23.5t-28.5 17.5t-47 3h-299q-37 0 -47.5 -3t-28.5 -17.5 t-21.5 -23.5t-3.5 -40v-160z" />
<glyph unicode="&#xe4;" horiz-adv-x="1159" d="M143 184v246q0 61 50 102l49 41q49 41 98 41h367q39 0 49 -3t26 -17q25 -20 25 -41h8v244q0 31 -3 40t-21.5 23t-28.5 17.5t-47 3.5h-332q-37 0 -50.5 -5.5t-49.5 -35.5l-123 102l49 41q37 31 50 36t50 5h482q49 0 98 -41l49 -41q49 -41 49 -102v-613q0 -31 3 -40 t21.5 -23t21.5 -23.5t3 -40.5v-100h-71q-37 0 -50.5 5t-37.5 26q-33 26 -33 51h-8q0 -25 -45 -51q-37 -23 -50.5 -27t-50.5 -4h-350q-49 0 -98 41l-49 41q-49 41 -50 102zM315 227q0 -31 3.5 -40t21.5 -23t28.5 -17.5t47.5 -3.5h250q37 0 50 4.5t50 27t43 32.5t6 41v139 q0 31 -3 40t-21.5 23.5t-28.5 17.5t-47 3h-299q-37 0 -47.5 -3t-28.5 -17.5t-21.5 -23.5t-3.5 -40v-160zM317 1286v17q0 45 21 67q12 14 22 16.5t51 2.5q47 0 59.5 -2.5t26.5 -16.5q12 -10 14.5 -19t2.5 -48v-17q0 -39 -2 -48t-17 -19q-18 -18 -73 -19h-11q-53 0 -73.5 18.5 t-20.5 67.5zM645 1286v17q0 45 20 67q12 14 22.5 16.5t51.5 2.5q47 0 59.5 -2.5t26.5 -16.5q12 -10 14 -19t2 -48v-17q0 -39 -2 -48t-16 -19q-18 -18 -74 -19h-10q-53 0 -73.5 18.5t-20.5 67.5z" />
<glyph unicode="&#xe5;" horiz-adv-x="1159" d="M143 184v246q0 61 50 102l49 41q49 41 98 41h367q39 0 49 -3t26 -17q25 -20 25 -41h8v244q0 31 -3 40t-21.5 23t-28.5 17.5t-47 3.5h-332q-37 0 -50.5 -5.5t-49.5 -35.5l-123 102l49 41q37 31 50 36t50 5h482q49 0 98 -41l49 -41q49 -41 49 -102v-613q0 -31 3 -40 t21.5 -23t21.5 -23.5t3 -40.5v-100h-71q-37 0 -50.5 5t-37.5 26q-33 26 -33 51h-8q0 -25 -45 -51q-37 -23 -50.5 -27t-50.5 -4h-350q-49 0 -98 41l-49 41q-49 41 -50 102zM315 227q0 -31 3.5 -40t21.5 -23t28.5 -17.5t47.5 -3.5h250q37 0 50 4.5t50 27t43 32.5t6 41v139 q0 31 -3 40t-21.5 23.5t-28.5 17.5t-47 3h-299q-37 0 -47.5 -3t-28.5 -17.5t-21.5 -23.5t-3.5 -40v-160zM387 1241v100q0 47 4 59.5t24 33.5q16 16 30 19t71 3h127q57 0 70.5 -3t29.5 -19q20 -20 24.5 -32.5t4.5 -60.5v-100q0 -49 -4.5 -60.5t-24.5 -31.5 q-16 -16 -29.5 -19.5t-70.5 -3.5h-127q-57 0 -70.5 3.5t-30.5 19.5q-20 20 -24 31.5t-4 60.5zM475 1270q0 -33 12 -43q16 -13 43 -13h98q27 0 43 13q12 10 13 43v43q0 33 -13 43q-16 12 -43 12h-98q-27 0 -43 -12q-12 -10 -12 -43v-43z" />
<glyph unicode="&#xe6;" horiz-adv-x="1810" d="M143 184v246q0 61 50 102l49 41q49 41 98 41h367q39 0 49 -3t26 -17q23 -23 25 -31h8v234q0 31 -3 40t-21.5 23t-28.5 17.5t-47 3.5h-332q-37 0 -50.5 -5.5t-49.5 -35.5l-123 102l49 41q37 31 50 36t50 5h482q61 0 98 -45l8 -10h8l8 10q37 45 99 45h477q41 0 98 -41 l51 -41q49 -37 50 -102v-420h-701v-193q0 -31 3 -40t21.5 -23t29 -17.5t46.5 -3.5h398q37 0 50 5.5t50 35.5l123 -102l-49 -41q-37 -31 -50.5 -36t-49.5 -5h-547q-49 0 -99 41l-49 43h-8q-41 -37 -65 -53q-35 -23 -48.5 -27t-52.5 -4h-350q-49 0 -98 41l-49 41 q-49 41 -50 102zM315 227q0 -31 3.5 -40t21.5 -23t28.5 -17.5t47.5 -3.5h250q37 0 50 4.5t50 26.5q47 29 49 53v160q0 31 -3 40t-21.5 23.5t-28.5 17.5t-47 3h-299q-37 0 -47.5 -3t-28.5 -17.5t-21.5 -23.5t-3.5 -40v-160zM987 553h529v244q0 31 -3.5 40t-21.5 23 t-28.5 17.5t-47.5 3.5h-328q-37 0 -47 -3.5t-28.5 -17.5t-21.5 -23.5t-3 -39.5v-244z" />
<glyph unicode="&#xe7;" horiz-adv-x="1054" d="M123 184v656q0 61 49 102l49 41q49 41 98 41h426q49 0 99 -41l49 -41q49 -41 49 -102v-82h-172v39q0 31 -3 40t-21.5 23t-28.5 17.5t-47 3.5h-275q-37 0 -47 -3.5t-28.5 -17.5t-21.5 -23.5t-3 -39.5v-570q0 -31 3 -40t21.5 -23t28.5 -17.5t47 -3.5h275q37 0 47 3.5 t28.5 17.5t21.5 23.5t3 39.5v39h172v-82q0 -61 -49 -102l-49 -41q-50 -41 -99 -41h-182v-121q53 39 74 39h65q25 0 50 -20l24 -21q25 -20 25 -51v-184q0 -31 -25 -52l-24 -20q-25 -20 -50 -21h-227q-25 0 -49 21l-25 20q-25 20 -24 52v65h100v-18q0 -23 12.5 -33t38.5 -10 h119q29 0 41 10t12 33v90q0 23 -12 33t-39 10h-43q-12 0 -22 -6l-21 -15h-100v199h-144q-49 0 -98 41l-49 41q-49 41 -49 102z" />
<glyph unicode="&#xe8;" horiz-adv-x="1118" d="M123 184v656q0 61 49 102l49 41q49 41 98 41h478q41 0 98 -41l51 -41q49 -37 49 -102v-420h-700v-193q0 -31 3 -40t21.5 -23t28.5 -17.5t47 -3.5h398q37 0 50 5t50 36l123 -102l-49 -41q-37 -31 -50.5 -36t-50.5 -5h-547q-49 0 -98 41l-49 41q-49 41 -49 102zM295 553 h528v244q0 31 -3 40t-21.5 23t-28.5 17.5t-47 3.5h-328q-37 0 -47 -3.5t-28.5 -17.5t-21.5 -23.5t-3 -39.5v-244zM334 1323l88 129l280 -244l-53 -82z" />
<glyph unicode="&#xe9;" horiz-adv-x="1118" d="M123 184v656q0 61 49 102l49 41q49 41 98 41h478q41 0 98 -41l51 -41q49 -37 49 -102v-420h-700v-193q0 -31 3 -40t21.5 -23t28.5 -17.5t47 -3.5h398q37 0 50 5t50 36l123 -102l-49 -41q-37 -31 -50.5 -36t-50.5 -5h-547q-49 0 -98 41l-49 41q-49 41 -49 102zM295 553 h528v244q0 31 -3 40t-21.5 23t-28.5 17.5t-47 3.5h-328q-37 0 -47 -3.5t-28.5 -17.5t-21.5 -23.5t-3 -39.5v-244zM437 1208l280 244l88 -129l-315 -197z" />
<glyph unicode="&#xea;" horiz-adv-x="1118" d="M123 184v656q0 61 49 102l49 41q49 41 98 41h478q41 0 98 -41l51 -41q49 -37 49 -102v-420h-700v-193q0 -31 3 -40t21.5 -23t28.5 -17.5t47 -3.5h398q37 0 50 5t50 36l123 -102l-49 -41q-37 -31 -50.5 -36t-50.5 -5h-547q-49 0 -98 41l-49 41q-49 41 -49 102zM295 553 h528v244q0 31 -3 40t-21.5 23t-28.5 17.5t-47 3.5h-328q-37 0 -47 -3.5t-28.5 -17.5t-21.5 -23.5t-3 -39.5v-244zM304 1200l198 234h109l203 -234l-123 -39l-119 144q-10 12 -10 24h-9q0 -12 -10 -24l-119 -144z" />
<glyph unicode="&#xeb;" horiz-adv-x="1118" d="M123 184v656q0 61 49 102l49 41q49 41 98 41h478q41 0 98 -41l51 -41q49 -37 49 -102v-420h-700v-193q0 -31 3 -40t21.5 -23t28.5 -17.5t47 -3.5h398q37 0 50 5t50 36l123 -102l-49 -41q-37 -31 -50.5 -36t-50.5 -5h-547q-49 0 -98 41l-49 41q-49 41 -49 102zM295 553 h528v244q0 31 -3 40t-21.5 23t-28.5 17.5t-47 3.5h-328q-37 0 -47 -3.5t-28.5 -17.5t-21.5 -23.5t-3 -39.5v-244zM297 1286v17q0 45 21 67q12 14 22 16.5t51 2.5q47 0 59.5 -2.5t26.5 -16.5q12 -10 14.5 -19t2.5 -48v-17q0 -39 -2 -48t-17 -19q-18 -18 -73 -19h-11 q-53 0 -73.5 18.5t-20.5 67.5zM625 1286v17q0 45 20 67q12 14 22.5 16.5t51.5 2.5q47 0 59.5 -2.5t26.5 -16.5q12 -10 14 -19t2 -48v-17q0 -39 -2 -48t-16 -19q-18 -18 -74 -19h-10q-53 0 -73.5 18.5t-20.5 67.5z" />
<glyph unicode="&#xec;" d="M-55 1323l88 129l280 -244l-53 -82zM123 0v1024h172v-1024h-172z" />
<glyph unicode="&#xed;" d="M109 1208l280 244l88 -129l-315 -197zM123 0v1024h172v-1024h-172z" />
<glyph unicode="&#xee;" d="M-43 1200l198 234h109l203 -234l-123 -39l-119 144q-10 12 -10 24h-9q0 -12 -10 -24l-119 -144zM123 0v1024h172v-1024h-172z" />
<glyph unicode="&#xef;" d="M-51 1286v17q0 45 21 67q12 14 22 16.5t51 2.5q47 0 59.5 -2.5t26.5 -16.5q12 -10 14.5 -19t2.5 -48v-17q0 -39 -2 -48t-17 -19q-18 -18 -73 -19h-11q-53 0 -73.5 18.5t-20.5 67.5zM123 0v1024h172v-1024h-172zM277 1286v17q0 45 20 67q12 14 22.5 16.5t51.5 2.5 q47 0 59.5 -2.5t26.5 -16.5q12 -10 14 -19t2 -48v-17q0 -39 -2 -48t-16 -19q-18 -18 -74 -19h-10q-53 0 -73.5 18.5t-20.5 67.5z" />
<glyph unicode="&#xf0;" horiz-adv-x="1130" d="M121 164v696q0 41 49 82l49 41q49 41 98 41h385q14 0 28.5 -6t32 -18.5t29 -22.5t31 -28.5t27.5 -26.5h8v59q0 33 -8 48t-37 40l-205 170l-110 -121l-99 90l107 115l-150 125l101 108l147 -126l129 141l98 -90l-124 -138l256 -215q43 -43 43 -84v-880q0 -41 -50 -82 l-49 -41q-49 -41 -98 -41h-492q-49 0 -98 41l-49 41q-49 41 -49 82zM293 227q0 -31 3 -40t21.5 -23t28.5 -17.5t47 -3.5h340q37 0 47.5 3.5t28.5 17.5t21.5 23.5t3.5 39.5v549q0 31 -6.5 41t-43 32.5t-50 27t-52.5 4.5h-289q-37 0 -47 -3.5t-28.5 -17.5t-21.5 -23t-3 -40 v-570z" />
<glyph unicode="&#xf1;" horiz-adv-x="1150" d="M123 924v100h72q37 0 50 -5t38 -26q33 -27 32 -51h9q0 25 45 51q37 23 50 27t50 4h362q49 0 99 -41l49 -41q49 -41 49 -102v-840h-172v797q0 31 -3 40t-21.5 23t-28.5 17.5t-47 3.5h-262q-37 0 -50.5 -4.5t-50.5 -27t-43 -32.5t-6 -41v-776h-172v797q0 31 -3 40t-21.5 23 t-21.5 23.5t-3 40.5zM263 1253l161 80q20 12 49 13q14 0 47 -11.5t64 -24t56.5 -23.5t37.5 -11q10 0 27 6l127 66l55 -105l-162 -82q-23 -12 -49 -12q-25 0 -51.5 11t-55 24.5t-54 25t-42.5 11.5q-20 0 -59 -21l-96 -51z" />
<glyph unicode="&#xf2;" horiz-adv-x="1134" d="M125 184v656q0 61 49 102l49 41q50 41 99 41h491q49 0 98 -41l50 -41q49 -41 49 -102v-656q0 -61 -49 -102l-50 -41q-49 -41 -98 -41h-491q-49 0 -99 41l-49 41q-49 41 -49 102zM297 227q0 -31 3 -40t21.5 -23t28.5 -17.5t47 -3.5h340q37 0 47.5 3.5t28.5 17.5t21.5 23 t3.5 40v570q0 31 -3.5 40t-21.5 23t-28.5 17.5t-47.5 3.5h-340q-37 0 -47 -3.5t-28.5 -17.5t-21.5 -23.5t-3 -39.5v-570zM322 1323l88 129l280 -244l-53 -82z" />
<glyph unicode="&#xf3;" horiz-adv-x="1134" d="M125 184v656q0 61 49 102l49 41q50 41 99 41h491q49 0 98 -41l50 -41q49 -41 49 -102v-656q0 -61 -49 -102l-50 -41q-49 -41 -98 -41h-491q-49 0 -99 41l-49 41q-49 41 -49 102zM297 227q0 -31 3 -40t21.5 -23t28.5 -17.5t47 -3.5h340q37 0 47.5 3.5t28.5 17.5t21.5 23 t3.5 40v570q0 31 -3.5 40t-21.5 23t-28.5 17.5t-47.5 3.5h-340q-37 0 -47 -3.5t-28.5 -17.5t-21.5 -23.5t-3 -39.5v-570zM445 1208l280 244l88 -129l-315 -197z" />
<glyph unicode="&#xf4;" horiz-adv-x="1134" d="M125 184v656q0 61 49 102l49 41q50 41 99 41h491q49 0 98 -41l50 -41q49 -41 49 -102v-656q0 -61 -49 -102l-50 -41q-49 -41 -98 -41h-491q-49 0 -99 41l-49 41q-49 41 -49 102zM297 227q0 -31 3 -40t21.5 -23t28.5 -17.5t47 -3.5h340q37 0 47.5 3.5t28.5 17.5t21.5 23 t3.5 40v570q0 31 -3.5 40t-21.5 23t-28.5 17.5t-47.5 3.5h-340q-37 0 -47 -3.5t-28.5 -17.5t-21.5 -23.5t-3 -39.5v-570zM312 1200l198 234h109l203 -234l-123 -39l-119 144q-10 12 -10 24h-9q0 -12 -10 -24l-119 -144z" />
<glyph unicode="&#xf5;" horiz-adv-x="1134" d="M125 184v656q0 61 49 102l49 41q50 41 99 41h491q49 0 98 -41l50 -41q49 -41 49 -102v-656q0 -61 -49 -102l-50 -41q-49 -41 -98 -41h-491q-49 0 -99 41l-49 41q-49 41 -49 102zM254 1253l161 80q20 12 49 13q14 0 47 -11.5t64 -24t56.5 -23.5t37.5 -11q10 0 27 6l127 66 l55 -105l-162 -82q-23 -12 -49 -12q-25 0 -51.5 11t-55 24.5t-54 25t-42.5 11.5q-20 0 -59 -21l-96 -51zM297 227q0 -31 3 -40t21.5 -23t28.5 -17.5t47 -3.5h340q37 0 47.5 3.5t28.5 17.5t21.5 23t3.5 40v570q0 31 -3.5 40t-21.5 23t-28.5 17.5t-47.5 3.5h-340 q-37 0 -47 -3.5t-28.5 -17.5t-21.5 -23.5t-3 -39.5v-570z" />
<glyph unicode="&#xf6;" horiz-adv-x="1134" d="M125 184v656q0 61 49 102l49 41q50 41 99 41h491q49 0 98 -41l50 -41q49 -41 49 -102v-656q0 -61 -49 -102l-50 -41q-49 -41 -98 -41h-491q-49 0 -99 41l-49 41q-49 41 -49 102zM297 227q0 -31 3 -40t21.5 -23t28.5 -17.5t47 -3.5h340q37 0 47.5 3.5t28.5 17.5t21.5 23 t3.5 40v570q0 31 -3.5 40t-21.5 23t-28.5 17.5t-47.5 3.5h-340q-37 0 -47 -3.5t-28.5 -17.5t-21.5 -23.5t-3 -39.5v-570zM305 1286v17q0 45 21 67q12 14 22 16.5t51 2.5q47 0 59.5 -2.5t26.5 -16.5q12 -10 14.5 -19t2.5 -48v-17q0 -39 -2 -48t-17 -19q-18 -18 -73 -19h-11 q-53 0 -73.5 18.5t-20.5 67.5zM633 1286v17q0 45 20 67q12 14 22.5 16.5t51.5 2.5q47 0 59.5 -2.5t26.5 -16.5q12 -10 14 -19t2 -48v-17q0 -39 -2 -48t-16 -19q-18 -18 -74 -19h-10q-53 0 -73.5 18.5t-20.5 67.5z" />
<glyph unicode="&#xf7;" horiz-adv-x="1101" d="M123 602v133h856v-133h-856zM465 301v90q0 23 14.5 38t71.5 15t71.5 -14t14.5 -37v-82q0 -33 -15.5 -47t-70.5 -14q-59 0 -72.5 14.5t-13.5 36.5zM465 936v90q0 23 14.5 38t71.5 15t71.5 -14t14.5 -37v-82q0 -33 -15.5 -47t-70.5 -14q-59 0 -72.5 14t-13.5 37z" />
<glyph unicode="&#xf8;" horiz-adv-x="1134" d="M74 -102l119 168l-19 16q-49 41 -49 102v656q0 61 49 102l49 41q50 41 99 41h491q27 0 45 -6l76 108h133l-121 -172l15 -12q49 -41 49 -102v-656q0 -61 -49 -102l-50 -41q-49 -41 -98 -41h-491q-27 0 -46 6l-75 -108h-127zM297 215l465 666h-365q-37 0 -47 -3.5 t-28.5 -17.5t-21.5 -23.5t-3 -39.5v-582zM373 143h364q37 0 47.5 3.5t28.5 17.5t21.5 23t3.5 40v570z" />
<glyph unicode="&#xf9;" horiz-adv-x="1110" d="M123 184v840h172v-797q0 -31 3 -40t21.5 -23t28.5 -17.5t47 -3.5h221q37 0 50.5 4.5t50.5 27t43 32.5t6 41v776h172v-797q0 -31 3 -40t21.5 -23t21.5 -23.5t3 -40.5v-100h-72q-37 0 -50 5t-38 26q-33 27 -32 51h-9q0 -25 -45 -51q-37 -23 -50 -27t-50 -4h-322 q-49 0 -98 41l-49 41q-49 41 -49 102zM310 1323l88 129l280 -244l-53 -82z" />
<glyph unicode="&#xfa;" horiz-adv-x="1110" d="M123 184v840h172v-797q0 -31 3 -40t21.5 -23t28.5 -17.5t47 -3.5h221q37 0 50.5 4.5t50.5 27t43 32.5t6 41v776h172v-797q0 -31 3 -40t21.5 -23t21.5 -23.5t3 -40.5v-100h-72q-37 0 -50 5t-38 26q-33 27 -32 51h-9q0 -25 -45 -51q-37 -23 -50 -27t-50 -4h-322 q-49 0 -98 41l-49 41q-49 41 -49 102zM412 1208l280 244l88 -129l-315 -197z" />
<glyph unicode="&#xfb;" horiz-adv-x="1110" d="M123 184v840h172v-797q0 -31 3 -40t21.5 -23t28.5 -17.5t47 -3.5h221q37 0 50.5 4.5t50.5 27t43 32.5t6 41v776h172v-797q0 -31 3 -40t21.5 -23t21.5 -23.5t3 -40.5v-100h-72q-37 0 -50 5t-38 26q-33 27 -32 51h-9q0 -25 -45 -51q-37 -23 -50 -27t-50 -4h-322 q-49 0 -98 41l-49 41q-49 41 -49 102zM299 1200l198 234h109l203 -234l-123 -39l-119 144q-10 12 -10 24h-9q0 -12 -10 -24l-119 -144z" />
<glyph unicode="&#xfc;" horiz-adv-x="1110" d="M123 184v840h172v-797q0 -31 3 -40t21.5 -23t28.5 -17.5t47 -3.5h221q37 0 50.5 4.5t50.5 27t43 32.5t6 41v776h172v-797q0 -31 3 -40t21.5 -23t21.5 -23.5t3 -40.5v-100h-72q-37 0 -50 5t-38 26q-33 27 -32 51h-9q0 -25 -45 -51q-37 -23 -50 -27t-50 -4h-322 q-49 0 -98 41l-49 41q-49 41 -49 102zM293 1286v17q0 45 21 67q12 14 22 16.5t51 2.5q47 0 59.5 -2.5t26.5 -16.5q12 -10 14.5 -19t2.5 -48v-17q0 -39 -2 -48t-17 -19q-18 -18 -73 -19h-11q-53 0 -73.5 18.5t-20.5 67.5zM621 1286v17q0 45 20 67q12 14 22.5 16.5t51.5 2.5 q47 0 59.5 -2.5t26.5 -16.5q12 -10 14 -19t2 -48v-17q0 -39 -2 -48t-16 -19q-18 -18 -74 -19h-10q-53 0 -73.5 18.5t-20.5 67.5z" />
<glyph unicode="&#xfd;" horiz-adv-x="1101" d="M123 184v840h172v-797q0 -31 3 -40t21.5 -23t28.5 -17.5t47 -3.5h262q37 0 50.5 4.5t50.5 27t43 32.5t6 41v776h172v-1372q0 -61 -49 -103l-49 -41q-50 -40 -99 -40h-589v53q0 47 5 58t31 32h502q37 0 47 3t28.5 17.5t21.5 23.5t3 40v403h-8q-4 -18 -49 -57 q-49 -41 -98 -41h-357q-49 0 -98 41l-49 41q-49 41 -49 102zM408 1208l280 244l88 -129l-315 -197z" />
<glyph unicode="&#xfe;" horiz-adv-x="1179" d="M172 -532v2048h172v-541q8 8 25 18q18 12 29.5 18.5t20.5 9.5t20.5 3h29.5h391q47 0 98 -41l50 -41q49 -41 49 -102v-656q0 -63 -49 -102l-50 -41q-51 -41 -98 -41h-360q-51 0 -99 41q-49 49 -49 61h-8v-634h-172zM344 266q0 -43 49 -82q52 -41 99 -41h292q37 0 47.5 3.5 t28.5 17.5t21.5 23.5t3.5 39.5v570q0 31 -3 40t-22 23q-18 14 -28.5 17.5t-47.5 3.5h-290h-29.5t-21 -3.5t-20.5 -9.5t-30 -18q-37 -23 -43 -33t-6 -41v-510z" />
<glyph unicode="&#xff;" horiz-adv-x="1101" d="M123 184v840h172v-797q0 -31 3 -40t21.5 -23t28.5 -17.5t47 -3.5h262q37 0 50.5 4.5t50.5 27t43 32.5t6 41v776h172v-1372q0 -61 -49 -103l-49 -41q-50 -40 -99 -40h-589v53q0 47 5 58t31 32h502q37 0 47 3t28.5 17.5t21.5 23.5t3 40v403h-8q-4 -18 -49 -57 q-49 -41 -98 -41h-357q-49 0 -98 41l-49 41q-49 41 -49 102zM289 1286v17q0 45 21 67q12 14 22 16.5t51 2.5q47 0 59.5 -2.5t26.5 -16.5q12 -10 14.5 -19t2.5 -48v-17q0 -39 -2 -48t-17 -19q-18 -18 -73 -19h-11q-53 0 -73.5 18.5t-20.5 67.5zM617 1286v17q0 45 20 67 q12 14 22.5 16.5t51.5 2.5q47 0 59.5 -2.5t26.5 -16.5q12 -10 14 -19t2 -48v-17q0 -39 -2 -48t-16 -19q-18 -18 -74 -19h-10q-53 0 -73.5 18.5t-20.5 67.5z" />
<glyph unicode="&#x152;" horiz-adv-x="2099" d="M205 184v1065q0 61 49 103l49 41q49 41 98 41h1545v-144h-680v-491h567v-144h-567v-512h680v-143h-1545q-49 0 -98 41l-49 41q-49 41 -49 102zM377 227q0 -31 3 -40t21.5 -23t28.5 -17.5t47 -3.5h617v1147h-617q-37 0 -47 -3t-28.5 -17.5t-21.5 -23.5t-3 -40v-979z" />
<glyph unicode="&#x153;" horiz-adv-x="1832" d="M125 184v656q0 61 49 102l49 41q50 41 99 41h491q61 0 98 -45l9 -10h8l8 10q37 45 98 45h477q41 0 99 -41l51 -41q49 -37 49 -102v-420h-700v-193q0 -31 3 -40t21.5 -23t28.5 -17.5t47 -3.5h397q37 0 50.5 5.5t50.5 35.5l123 -102l-50 -41q-37 -31 -50 -36t-50 -5h-547 q-61 0 -98 45l-8 10h-8l-9 -10q-37 -45 -98 -45h-491q-49 0 -99 41l-49 41q-49 41 -49 102zM297 227q0 -31 3 -40t21.5 -23t28.5 -17.5t47 -3.5h340q37 0 47.5 3.5t28.5 17.5t21.5 23t3.5 40v594q-2 18 -25 39q-18 14 -28.5 17.5t-47.5 3.5h-340q-37 0 -47 -3.5t-28.5 -17.5 t-21.5 -23.5t-3 -39.5v-570zM1010 553h528v244q0 31 -3 40t-21.5 23t-28.5 17.5t-47 3.5h-328q-37 0 -47 -3.5t-28.5 -17.5t-21.5 -23.5t-3 -39.5v-244z" />
<glyph unicode="&#x2c6;" horiz-adv-x="817" d="M154 1200l198 234h109l203 -234l-123 -39l-119 144q-10 12 -10 24h-9q0 -12 -10 -24l-119 -144z" />
<glyph unicode="&#x2dc;" horiz-adv-x="927" d="M150 1253l161 80q20 12 49 13q14 0 47 -11.5t64 -24t56.5 -23.5t37.5 -11q10 0 27 6l127 66l55 -105l-162 -82q-23 -12 -49 -12q-25 0 -51.5 11t-55 24.5t-54 25t-42.5 11.5q-20 0 -59 -21l-96 -51z" />
<glyph unicode="&#x2000;" horiz-adv-x="933" />
<glyph unicode="&#x2001;" horiz-adv-x="1866" />
<glyph unicode="&#x2002;" horiz-adv-x="933" />
<glyph unicode="&#x2003;" horiz-adv-x="1866" />
<glyph unicode="&#x2004;" horiz-adv-x="622" />
<glyph unicode="&#x2005;" horiz-adv-x="466" />
<glyph unicode="&#x2006;" horiz-adv-x="311" />
<glyph unicode="&#x2007;" horiz-adv-x="311" />
<glyph unicode="&#x2008;" horiz-adv-x="233" />
<glyph unicode="&#x2009;" horiz-adv-x="373" />
<glyph unicode="&#x200a;" horiz-adv-x="103" />
<glyph unicode="&#x2010;" horiz-adv-x="1028" d="M123 602v133h782v-133h-782z" />
<glyph unicode="&#x2011;" horiz-adv-x="1028" d="M123 602v133h782v-133h-782z" />
<glyph unicode="&#x2012;" horiz-adv-x="1028" d="M123 602v133h782v-133h-782z" />
<glyph unicode="&#x2013;" horiz-adv-x="1249" d="M92 602v133h1065v-133h-1065z" />
<glyph unicode="&#x2014;" horiz-adv-x="1327" d="M0 602v133h1327v-133h-1327z" />
<glyph unicode="&#x2018;" d="M123 1104v35q0 49 12 100l49 225l62 -41v-204q16 0 33 -17q12 -10 14 -18t2 -45v-35q0 -49 -16 -66q-16 -14 -68 -14q-55 0 -72 14q-16 16 -16 66z" />
<glyph unicode="&#x2019;" d="M123 1348v34q0 49 16 66q16 14 68 14q55 0 72 -14q16 -16 16 -66v-34q0 -50 -12 -101l-50 -225l-61 41v205q-16 0 -33 16q-12 10 -14 18.5t-2 45.5z" />
<glyph unicode="&#x201a;" d="M123 80v35q0 49 16 65q16 14 68 15q55 0 72 -15q16 -16 16 -65v-35q0 -49 -12 -100l-50 -226l-61 41v205q-16 0 -33 16q-12 10 -14 19.5t-2 44.5z" />
<glyph unicode="&#x201c;" horiz-adv-x="718" d="M123 1104v35q0 49 12 100l49 225l62 -41v-204q16 0 33 -17q12 -10 14 -18t2 -45v-35q0 -49 -16 -66q-16 -14 -68 -14q-55 0 -72 14q-16 16 -16 66zM424 1104v35q0 49 12 100l49 225l62 -41v-204q16 0 33 -17q12 -10 14 -18t2 -45v-35q0 -49 -16 -66q-16 -14 -68 -14 q-55 0 -72 14q-16 16 -16 66z" />
<glyph unicode="&#x201d;" horiz-adv-x="718" d="M123 1348v34q0 49 16 66q16 14 68 14q55 0 72 -14q16 -16 16 -66v-34q0 -50 -12 -101l-50 -225l-61 41v205q-16 0 -33 16q-12 10 -14 18.5t-2 45.5zM424 1348v34q0 49 16 66q16 14 68 14q55 0 72 -14q16 -16 16 -66v-34q0 -50 -12 -101l-49 -225l-62 41v205q-16 0 -33 16 q-12 10 -14 18.5t-2 45.5z" />
<glyph unicode="&#x201e;" horiz-adv-x="718" d="M123 80v35q0 49 16 65q16 14 68 15q55 0 72 -15q16 -16 16 -65v-35q0 -49 -12 -100l-50 -226l-61 41v205q-16 0 -33 16q-12 10 -14 19.5t-2 44.5zM424 80v35q0 49 16 65q16 14 68 15q55 0 72 -15q16 -16 16 -65v-35q0 -49 -12 -100l-49 -226l-62 41v205q-16 0 -33 16 q-12 10 -14 19.5t-2 44.5z" />
<glyph unicode="&#x2022;" horiz-adv-x="716" d="M154 678v106q0 66 5 82.5t34 42.5q23 23 40 27t97 4h63q76 0 94.5 -4t44.5 -27q25 -27 29 -43t4 -82v-106q0 -66 -5 -82t-34 -43q-23 -23 -40 -27t-91 -4h-65q-80 0 -97.5 4t-42.5 27q-27 27 -31.5 43t-4.5 82z" />
<glyph unicode="&#x202f;" horiz-adv-x="373" />
<glyph unicode="&#x2039;" horiz-adv-x="714" d="M133 559l340 549l109 -82l-295 -467l295 -467l-109 -82z" />
<glyph unicode="&#x203a;" horiz-adv-x="714" d="M133 92l295 467l-295 467l109 82l340 -549l-340 -549z" />
<glyph unicode="&#x205f;" horiz-adv-x="466" />
<glyph unicode="&#x20ac;" horiz-adv-x="1417" d="M41 522v133h205v125h-205v133h205v336q0 61 49 103l49 41q49 41 98 41h656q49 0 98 -41l49 -41q49 -41 49 -103v-82h-172v39q0 31 -3 40t-21.5 23.5t-28.5 17.5t-47 3h-504q-37 0 -47 -3t-28.5 -17.5t-21.5 -23.5t-3 -40v-293h524v-133h-524v-125h463v-133h-463v-295 q0 -31 3 -40t21.5 -23t28.5 -17.5t47 -3.5h504q37 0 47 3.5t28.5 17.5t21.5 23.5t3 39.5v39h172v-82q0 -61 -49 -102l-49 -41q-49 -41 -98 -41h-656q-49 0 -98 41l-49 41q-49 41 -49 102v338h-205z" />
<glyph unicode="&#xe000;" horiz-adv-x="1024" d="M0 0v1024h1024v-1024h-1024z" />
</font>
</defs>
</svg>
